<?xml version="1.0" encoding="utf-8"?>
<!-- Generator: Adobe Illustrator 25.0.1, SVG Export Plug-In . SVG Version: 6.00 Build 0)  -->
<svg version="1.1" id="Layer_1" xmlns="http://www.w3.org/2000/svg" xmlns:xlink="http://www.w3.org/1999/xlink" x="0px" y="0px"
	 viewBox="0 0 368.5 368.5" style="enable-background:new 0 0 368.5 368.5;" xml:space="preserve">
<style type="text/css">
	.st0{fill:#E3241C;}
	.st1{fill:#FAB511;}
	.st2{fill-rule:evenodd;clip-rule:evenodd;fill:#EB8A04;}
	.st3{fill-rule:evenodd;clip-rule:evenodd;fill:#FAB511;}
	.st4{fill:#B31A1C;}
	.st5{fill:#FFFFFF;}
</style>
<g>
	<path class="st0" d="M157.36,308.45c8.53-2.55,16.53-6.33,23.78-11.11l3.15-2.06l3.15,2.06c7.26,4.78,15.28,8.56,23.78,11.11
		c8.22,2.43,16.95,3.75,25.99,3.75c25.26,0,48.1-10.34,64.66-27.03c16.55-16.72,26.79-39.8,26.79-65.31
		c0-17.89-5.05-34.56-13.72-48.7c-9.01-14.6-21.94-26.51-37.3-34.16l-2.66-1.32l-0.48-2.98c-3.6-22.05-14.97-41.46-31.15-55.29
		c-15.9-13.63-36.51-21.84-59.05-21.84c-22.51,0-43.14,8.22-59.05,21.84c-16.19,13.83-27.52,33.24-31.15,55.29l-0.48,2.98
		l-2.64,1.32c-15.36,7.64-28.32,19.55-37.3,34.16c-8.7,14.14-13.72,30.81-13.72,48.7c0,25.51,10.23,48.59,26.76,65.31
		c16.55,16.69,39.4,27.03,64.66,27.03C140.44,312.2,149.14,310.89,157.36,308.45L157.36,308.45z"/>
	<path class="st1" d="M184.29,309.08c-7.34,4.47-15.31,8.02-23.67,10.54c-9.33,2.78-19.13,4.27-29.25,4.27
		c-28.43,0-54.2-11.65-72.82-30.46c-18.62-18.84-30.16-44.84-30.16-73.55c0-20.13,5.67-38.91,15.48-54.86
		c9.64-15.6,23.24-28.46,39.4-37.1c4.56-23.62,17.04-44.41,34.53-59.35c17.94-15.37,41.16-24.62,66.5-24.62s48.56,9.25,66.5,24.62
		c17.49,14.95,29.96,35.73,34.55,59.35c16.16,8.65,29.76,21.5,39.37,37.1c9.81,15.95,15.48,34.73,15.48,54.86
		c0,28.72-11.54,54.74-30.16,73.55c-18.62,18.81-44.36,30.46-72.82,30.46c-10.12,0-19.93-1.49-29.23-4.27
		C199.6,317.1,191.63,313.55,184.29,309.08L184.29,309.08z M157.36,308.45c8.53-2.55,16.53-6.33,23.78-11.11l3.15-2.06l3.15,2.06
		c7.26,4.78,15.28,8.56,23.78,11.11c8.22,2.43,16.95,3.75,25.99,3.75c25.26,0,48.1-10.34,64.66-27.03
		c16.55-16.72,26.79-39.8,26.79-65.31c0-17.89-5.05-34.56-13.72-48.7c-9.01-14.6-21.94-26.51-37.3-34.16l-2.66-1.32l-0.48-2.98
		c-3.6-22.05-14.97-41.46-31.15-55.29c-15.9-13.63-36.51-21.82-59.05-21.82c-22.51,0-43.14,8.19-59.05,21.82
		c-16.19,13.83-27.52,33.24-31.15,55.29l-0.48,2.98l-2.64,1.32c-15.36,7.64-28.32,19.55-37.3,34.16
		c-8.7,14.14-13.72,30.81-13.72,48.7c0,25.51,10.23,48.59,26.76,65.31c16.55,16.69,39.4,27.03,64.66,27.03
		C140.44,312.2,149.14,310.89,157.36,308.45L157.36,308.45z"/>
	<path class="st2" d="M83.27,127.91c-1.19,0.63-2.32,1.29-3.49,1.95c-5.64,3.64-10.89,7.9-15.59,12.65
		c-16.55,16.72-26.79,39.8-26.79,65.31c0,8.73,1.22,17.21,3.46,25.25c-0.6-4.32-0.91-8.73-0.91-13.2c0-17.89,5.02-34.56,13.72-48.7
		c7.17-11.65,16.84-21.59,28.26-29L83.27,127.91z"/>
	<path class="st2" d="M237.21,312.2c-9.04,0-17.77-1.32-25.99-3.75c-5.78-1.75-11.34-4.04-16.58-6.84l-10.23,7.53
		c12.22,6.13,26.02,9.59,40.59,9.59c17.86,0,34.5-5.18,48.56-14.09C262.41,309.51,250.14,312.2,237.21,312.2L237.21,312.2z"/>
	<path class="st2" d="M271.71,120.81l13.63,7.1c-0.57-2.89-1.25-5.73-2.04-8.53c-4.59-12.97-11.99-24.59-21.43-34.16
		c-14.03-14.14-32.6-23.73-53.29-26.34c12.95,3.61,24.77,10.02,34.75,18.55C256.55,88.72,266.53,103.72,271.71,120.81L271.71,120.81
		z"/>
	<path class="st3" d="M200.87,94.5c12.44,2.58,20.98,7.84,20.98,13.91c0,8.65-17.29,15.66-38.61,15.66s-38.58-7.01-38.58-15.66
		c0-6.07,8.5-11.34,20.95-13.91c0.77-0.11,0.96,1.26,0,1.52c-8.99,2-14.94,5.47-14.94,9.42c0,6.16,14.54,11.17,32.49,11.17
		s32.51-5.01,32.51-11.17c0-3.92-5.9-7.39-14.8-9.36C200.05,95.96,200.08,94.36,200.87,94.5L200.87,94.5z"/>
	<path class="st3" d="M191.95,77.23c-7.85,7.16-6.92,19.64-3.88,28.95c3.74,11.51,4.79,20.33,4.34,27
		c-0.45,6.99-3.4,10.91-9.16,16.03c0,0,5.41-7.07,3.74-14.74c-1.67-7.7-6.58-20.67-8.08-26.25
		C177.4,102.66,170.97,85.34,191.95,77.23L191.95,77.23z"/>
	<path class="st4" d="M306.98,250.39c-7.57,9.45-17.57,14.14-29.96,14.14c-14.49,0-25.74-4.44-33.79-13.34
		c-7.31-8.02-10.97-18.35-10.97-30.95c0-13.4,4.03-24.54,12.08-33.44c8.67-9.53,20.41-14.29,35.23-14.29
		c9.61,0,18.11,1.72,25.48,5.15v28.43c-1.9-6.44-5.3-11.42-10.2-15c-4.9-3.58-10.49-5.35-16.7-5.35c-7.65,0-13.97,2.83-18.99,8.47
		c-5.22,5.98-7.82,13.83-7.82,23.53c0,10.31,2.55,18.44,7.63,24.39c5.07,5.93,11.65,8.9,19.7,8.9c5.13,0,10.23-1.4,15.34-4.24
		c5.07-2.81,9.38-6.73,12.98-11.77V250.39z M123.46,230.87H95.11l13.97-34.64L123.46,230.87z M105.15,174.55h-8.28
		c3.66,0.6,5.5,2.72,5.5,6.3c0,0.14-0.03,0.31-0.03,0.46l-26.33,63.7c-2.98,7.16-5.95,12.23-8.93,15.2
		c-1.22,1.23-2.41,2.03-3.57,2.38h28.63c-4.05-0.6-6.09-2.86-6.09-6.7c0-1.86,0.74-4.47,2.18-7.82l2.1-4.78h38.21l1.96,4.84
		c1.64,3.61,2.47,6.33,2.47,8.16c0,3.61-1.81,5.7-5.47,6.3h28.83h6.29h39.74c8.25,0,14.71-2.46,19.33-7.39
		c4.05-4.32,6.09-9.73,6.09-16.26c0-5.93-1.73-10.99-5.05-15.35c-3.63-4.72-8.33-7.44-14.29-8.07c4.62-0.86,8.31-3.26,11.03-7.13
		c2.72-3.87,4.08-8.19,4.08-12.97c0-5.73-1.9-10.45-5.67-14.26c-4.34-4.41-10.35-6.61-18.06-6.61h-44.56
		c5.1,1.06,7.65,6.16,7.65,15.35v56.97c0,6.84-1.16,11.48-3.46,13.91c-3.09-2.61-6.24-7.64-9.44-15.12l-30.47-71.12h-7.2H105.15z
		 M204.25,198.2c0,8.82-5.61,13.23-13.29,13.23h-9.67v-24.59h11.2c3.91,0,6.92,1.2,9.01,3.58
		C203.31,192.44,204.25,195.05,204.25,198.2L204.25,198.2z M208.44,237.62c-0.45,8.36-7.03,12.54-16.27,12.54h-10.89v-26.83h11.82
		C203.34,223.34,208.98,227.63,208.44,237.62L208.44,237.62z"/>
	<path class="st5" d="M302.01,247.53c-7.6,9.42-17.57,14.14-29.96,14.14c-14.49,0-25.74-4.44-33.82-13.34
		c-7.29-8.05-10.94-18.35-10.94-30.95c0-13.4,4.03-24.54,12.08-33.44c8.65-9.53,20.41-14.29,35.23-14.29
		c9.61,0,18.09,1.72,25.48,5.15v28.43c-1.9-6.44-5.3-11.42-10.2-15c-4.93-3.58-10.49-5.35-16.72-5.35c-7.63,0-13.97,2.81-18.96,8.45
		c-5.22,6.01-7.82,13.86-7.82,23.53c0,10.34,2.52,18.47,7.63,24.39c5.07,5.96,11.62,8.93,19.67,8.93c5.16,0,10.26-1.4,15.34-4.24
		c5.07-2.81,9.41-6.73,13.01-11.77V247.53z M118.47,228H90.13l13.97-34.64L118.47,228z M100.16,171.69h-8.25
		c3.66,0.6,5.47,2.69,5.47,6.3c0,0.14,0,0.29,0,0.46l-26.36,63.7c-2.98,7.13-5.95,12.2-8.93,15.2c-1.22,1.23-2.41,2.03-3.54,2.38
		h28.63c-4.05-0.6-6.09-2.86-6.09-6.73c0-1.83,0.74-4.44,2.15-7.79l2.1-4.78h38.24l1.96,4.84c1.64,3.61,2.47,6.3,2.47,8.16
		c0,3.58-1.84,5.7-5.5,6.3h28.86h6.29h39.74c8.25,0,14.68-2.46,19.3-7.39c4.05-4.32,6.09-9.76,6.09-16.26
		c0-5.93-1.73-10.99-5.05-15.35c-3.6-4.72-8.33-7.44-14.26-8.07c4.62-0.89,8.28-3.26,11.03-7.13c2.72-3.89,4.08-8.19,4.08-12.97
		c0-5.73-1.9-10.48-5.67-14.26c-4.37-4.41-10.37-6.61-18.06-6.61H150.3c5.1,1.06,7.65,6.16,7.65,15.32v57
		c0,6.81-1.16,11.45-3.49,13.89c-3.06-2.58-6.21-7.62-9.44-15.09l-30.44-71.12h-7.23H100.16z M199.26,195.34
		c0,8.82-5.58,13.23-13.29,13.23h-9.64v-24.59h11.2c3.91,0,6.92,1.2,9.01,3.58C198.35,189.58,199.26,192.16,199.26,195.34
		L199.26,195.34z M203.48,234.73c-0.48,8.36-7.03,12.57-16.27,12.57h-10.89v-26.83h11.82C198.35,220.47,204.02,224.77,203.48,234.73
		L203.48,234.73z"/>
</g>
</svg>
