<svg xmlns:xlink="http://www.w3.org/1999/xlink" xmlns="http://www.w3.org/2000/svg" viewBox="0 0 370.00000000000006 48.682108023598666" preserveAspectRatio="xMidYMid meet" class="css-2shm9y" id="cbcfcehg" width="370.00000000000006"  height="48.682108023598666" ><defs id="SvgjsDefs1011"></defs><g id="SvgjsG1012" featurekey="symbolFeature-0" transform="matrix(0.8641975308641976,0,0,0.8641975308641976,-8.209876543209877,-18.4822236991223)" fill="#FD7014"><g xmlns="http://www.w3.org/2000/svg" fill="#FD7014"><path d="M85.049,59.401c-4.446-14.082-15.138-24.271-27.77-27.138c0.001-0.04,0.006-0.079,0.006-0.119   c0-4.018-3.268-7.286-7.285-7.286c-4.018,0-7.286,3.269-7.286,7.286c0,0.04,0.005,0.079,0.006,0.119   C30.089,35.13,19.397,45.319,14.951,59.401l-0.616,1.951h71.33L85.049,59.401z M50,27.858c2.218,0,4.027,1.701,4.242,3.864   c-1.397-0.183-2.813-0.278-4.243-0.278c-1.429,0-2.845,0.096-4.242,0.278C45.973,29.56,47.782,27.858,50,27.858z M18.48,58.353   c5.321-14.384,17.763-23.908,31.519-23.908c13.757,0,26.198,9.524,31.521,23.908H18.48z" fill="#FD7014"></path><path d="M90.5,64.358h-81v3h5.388c0,0.032-0.007,0.063-0.007,0.097c0,3.306,2.431,6.29,6.194,7.603l0.24,0.084h57.372l0.239-0.084   c3.762-1.313,6.192-4.298,6.192-7.603c0-0.033-0.008-0.063-0.008-0.097h5.39V64.358z M82.118,67.455   c0,2.203-1.949,3.914-3.953,4.687h-56.33c-2.004-0.771-3.954-2.483-3.954-4.687c0-0.033,0.007-0.064,0.008-0.097h64.219   C82.111,67.391,82.118,67.422,82.118,67.455z" fill="#FD7014"></path><path d="M53.501,38.407l-0.081,3.078c7.271,1.86,13.769,6.402,18.526,12.807l3.751,0.098C70.318,46.233,62.424,40.49,53.501,38.407   z" fill="#FD7014"></path></g></g><g id="SvgjsG1013" featurekey="nameFeature-0" transform="matrix(1.2974976646911558,0,0,1.2974976646911558,88.44300304984866,-14.583873454154944)" fill="#111111"><path d="M22.4 33.76 c0 1.56 1.08 1.96 2.64 1.56 l0 2.28 c-4.6 1.2 -7.2 2.96 -8.2 2.96 c-1.24 0 -1.76 -0.72 -1.6 -2.12 l0.04 -1 c-0.48 1.56 -1.64 2.96 -4.52 2.96 c-3.96 0 -9.56 -2.92 -9.56 -10.32 c0 -7.16 5.28 -10.44 9.2 -10.44 c2.56 0 4.16 1.44 4.84 2.76 l0 -3.44 c0 -1.64 -1.12 -2.16 -2.6 -1.88 l0 -1.88 c4.88 -1 7.04 -2.84 8.28 -2.84 c1.2 0 1.48 0.6 1.48 1.76 l0 19.64 z M12.32 38.24 c1.56 0 2.52 -1.88 2.92 -4.04 l0 -9.64 c-0.6 -1.28 -2.16 -2.72 -3.64 -2.72 c-2.28 0 -2.96 2.96 -2.96 6.8 c0 6.12 1.6 9.6 3.68 9.6 z M32.92 18.6 c-2.04 0 -3.68 -1.68 -3.68 -3.68 c0 -2.08 1.64 -3.68 3.68 -3.68 c2.08 0 3.6 1.6 3.6 3.68 c0 2 -1.52 3.68 -3.6 3.68 z M36.76 36.48 c0 1 1.08 1.32 2.68 1.48 l0 2.04 c-4.08 -0.12 -8.28 -0.12 -12.36 0 l0 -2.04 c1.4 -0.16 2.56 -0.48 2.56 -1.48 l0 -10.24 c0 -1.6 -1.12 -1.88 -2.6 -1.72 l0 -2 c5.24 -0.96 7.32 -3.08 8.76 -3.08 c0.76 0 1.2 0.52 1.2 1.24 c0 2.24 -0.24 3.88 -0.24 6.44 l0 9.36 z M58.03999999999999 34.24 c0 3.76 -3.84 6.4 -7.4 6.4 c-2.96 0 -5 -1.56 -5.72 -1.56 c-0.36 0 -0.56 0.16 -0.56 0.88 l-2.12 0 l-0.52 -5.8 l1.24 0 c0.76 0 1.08 0.2 1.4 0.92 c0.84 2.04 3.12 3.64 5.32 3.64 c1.52 0 2.48 -0.92 2.48 -2.12 c0 -1.64 -1.44 -2.44 -3.24 -3.16 c-2.4 -1 -7.48 -2.84 -7.48 -7.48 c0 -4.04 3.36 -6.32 7.12 -6.32 c3 0 3.88 1.12 4.76 1.12 c0.68 0 0.92 -0.36 0.96 -0.8 l2.12 0 l0.36 5.92 l-1.08 0 c-0.72 0 -1.36 -0.16 -1.64 -0.96 c-0.88 -2.52 -2.44 -3.4 -4.24 -3.4 c-1.28 0 -2.6 0.76 -2.6 2.24 c0 1.56 1.52 2.36 3.32 3 c2.28 0.92 7.52 2.92 7.52 7.48 z M82.52 36.48 c0 1 1.08 1.32 2.68 1.48 l0 2.04 c-4.2 -0.12 -8.28 -0.12 -12.48 0 l0 -2.04 c1.52 -0.04 2.64 -0.48 2.64 -1.48 l0 -9.44 c0 -2.48 0.12 -4.24 -1.68 -4.24 c-2.08 0 -3.96 3.44 -4.32 4.6 l0 9.08 c0 1 1.08 1.44 2.68 1.48 l0 2.04 c-4.16 -0.12 -8.28 -0.12 -12.44 0 l0 -2.04 c1.48 -0.16 2.64 -0.48 2.64 -1.48 l0 -17.08 c0 -1.64 -1.12 -1.92 -2.6 -1.64 l0 -2 c4.88 -1.12 7.04 -3.4 8.28 -3.4 c1.16 0 1.44 0.6 1.44 1.76 l0 7.2 l-0.48 3.2 c1.16 -1.72 3.28 -4.92 7.2 -4.92 c2.92 0 6.44 1.2 6.44 7.04 l0 9.84 z M104.35999999999999 35.24 c0.92 0 1.32 0.84 0.84 1.6 c-1.68 2.24 -4.24 3.56 -7.52 3.56 c-5.2 0 -11.08 -3.04 -11.08 -10.6 c0 -7.04 5.88 -10.16 10.64 -10.16 c4.72 0 8.68 2.2 8.72 5.72 c0 1.32 -0.72 2.56 -3.12 2.56 c-2.16 0 -3.04 -1.24 -2.92 -2.64 c0.16 -1.72 0.08 -3.56 -2.04 -3.56 c-2.84 0 -3.6 3.48 -3.6 8.2 c0 3.52 0.72 8.44 4.12 8.44 c2.68 0 3.6 -1.2 4 -2.48 c0.16 -0.44 0.48 -0.64 0.84 -0.64 l1.12 0 z M118.84 19.64 c4.48 0 10.44 2.68 10.44 10.16 c0 7.52 -5.96 10.6 -10.48 10.6 c-4.48 0 -10.44 -3.08 -10.44 -10.28 c0 -7.8 5.96 -10.48 10.48 -10.48 z M121.72 31.64 c0 -6.2 -1.28 -9.92 -3.36 -9.92 c-1.76 0 -2.4 2.8 -2.4 6.72 c0 6.04 1.28 9.92 3.36 9.92 c1.88 0 2.4 -2.84 2.4 -6.72 z M138.35999999999999 40.16 l-5.4 -14.92 c-0.72 -2.08 -1.16 -3 -2.88 -3.2 l-0.6 -0.08 l0 -2 l12.08 0 l0 2.04 l-0.92 0.04 c-1.24 0.12 -1.76 0.92 -0.96 3.2 l3.4 10.2 l2.8 -10.32 c0.64 -2.16 -0.56 -3.04 -1.88 -3.08 l-1.72 -0.04 l0 -2.04 l9.96 0 l0 2 l-0.52 0.08 c-2.16 0.24 -2.8 1.16 -3.44 3.08 l-4.48 15.04 l-5.44 0 z M169.6 35.24 c0.76 0 0.84 0.76 0.28 1.64 c-1.64 2.4 -3.8 3.52 -7.08 3.52 c-5.84 0 -10.76 -3.64 -10.76 -10.6 c0 -6.84 5.24 -10.16 10.04 -10.16 c5.8 0 9.12 4.12 9.12 7.96 c0 2.12 -0.88 3.52 -3.12 3.52 l-9.08 0 c0.16 3.04 0.52 7.24 4.68 7.24 c2.24 0 3.48 -0.88 4.52 -2.52 c0.28 -0.48 0.4 -0.6 0.96 -0.6 l0.44 0 z M164.56 28.6 c0 -4.28 -0.56 -6.88 -2.56 -6.88 c-2.16 0 -2.96 2.56 -3 6.88 l5.56 0 z M188.72 19.56 c1.88 0 3.48 1.28 3.48 3.28 c0 2.2 -1.96 3 -3.04 3 c-1.76 0 -2.72 -0.92 -3.64 -0.92 c-2.52 0 -2.72 2.76 -2.92 4.08 l0 7.48 c0 1 1 1.32 2.72 1.48 l0 2.04 c-4.12 -0.08 -8.32 -0.08 -12.44 0 l0 -2.04 c1.44 -0.16 2.52 -0.48 2.52 -1.48 l0 -10.08 c0 -1.64 -1.12 -1.88 -2.6 -1.6 l0 -2.04 c4.88 -1.08 7.08 -3.44 8.36 -3.44 c1.16 0 1.6 0.76 1.44 2.08 l-0.6 4.36 c1.48 -4.56 3.68 -6.2 6.72 -6.2 z M217 19.96 l0 2 l-1.44 0.12 c-1.56 0.08 -1.84 1.48 -2.08 2.04 l-9.72 23.68 c-0.28 0.68 -0.56 0.96 -1.92 0.96 c-1.64 0 -2.08 -0.28 -1.72 -0.96 c0.6 -0.92 3.8 -5.48 3.8 -6.48 c0 -1.24 -5.16 -11.52 -7.92 -17.2 c-0.32 -0.68 -0.72 -1.88 -1.6 -2.04 l-1.2 -0.12 l0 -2 c3.72 0.12 8.04 0.12 11.88 0 l0 2 l-1.08 0.12 c-1.08 0.16 -1.24 1.4 -0.88 2.04 l4.4 8.76 l3.64 -8.76 c0.32 -0.72 0 -1.96 -1.6 -2.04 l-1.56 -0.12 l0 -2 c2.8 0.12 5.28 0.12 9 0 z" fill="#111111"></path></g></svg>