<?xml version="1.0" encoding="UTF-8" standalone="no"?>
<!-- Created with Inkscape (http://www.inkscape.org/) -->

<svg
   xmlns:dc="http://purl.org/dc/elements/1.1/"
   xmlns:cc="http://creativecommons.org/ns#"
   xmlns:rdf="http://www.w3.org/1999/02/22-rdf-syntax-ns#"
   xmlns:svg="http://www.w3.org/2000/svg"
   xmlns="http://www.w3.org/2000/svg"
   xmlns:sodipodi="http://sodipodi.sourceforge.net/DTD/sodipodi-0.dtd"
   xmlns:inkscape="http://www.inkscape.org/namespaces/inkscape"
   width="24.147392mm"
   height="6.1423197mm"
   viewBox="0 0 85.561626 21.764125"
   id="svg5768"
   version="1.1"
   inkscape:version="0.91 r13725"
   sodipodi:docname="Indofood logo-id.svg">
  <defs
     id="defs5770">
    <clipPath
       clipPathUnits="userSpaceOnUse"
       id="clipPath252">
      <path
         d="m 0,0 1190.551,0 0,841.89 L 0,841.89 0,0 Z"
         id="path254"
         inkscape:connector-curvature="0" />
    </clipPath>
  </defs>
  <sodipodi:namedview
     id="base"
     pagecolor="#ffffff"
     bordercolor="#666666"
     borderopacity="1.0"
     inkscape:pageopacity="0.0"
     inkscape:pageshadow="2"
     inkscape:zoom="0.35"
     inkscape:cx="-223.64781"
     inkscape:cy="53.73921"
     inkscape:document-units="px"
     inkscape:current-layer="layer1"
     showgrid="false"
     fit-margin-top="0"
     fit-margin-left="0"
     fit-margin-right="0"
     fit-margin-bottom="0"
     inkscape:window-width="1366"
     inkscape:window-height="705"
     inkscape:window-x="-8"
     inkscape:window-y="-8"
     inkscape:window-maximized="1" />
  <metadata
     id="metadata5773">
    <rdf:RDF>
      <cc:Work
         rdf:about="">
        <dc:format>image/svg+xml</dc:format>
        <dc:type
           rdf:resource="http://purl.org/dc/dcmitype/StillImage" />
        <dc:title></dc:title>
      </cc:Work>
    </rdf:RDF>
  </metadata>
  <g
     inkscape:label="Layer 1"
     inkscape:groupmode="layer"
     id="layer1"
     transform="translate(-171.50495,-564.33729)">
    <g
       transform="matrix(1.25,0,0,-1.25,-1177.9733,618.12804)"
       id="g248">
      <g
         id="g250"
         clip-path="url(#clipPath252)">
        <g
           id="g256"
           transform="translate(1091.3055,27.851)">
          <path
             d="m 0,0 c 0.03,0.187 -0.021,0.18 -0.144,0.218 -0.031,0.005 -0.04,0.033 -0.024,0.063 l 0.034,0.081 c 0.021,0.024 0.038,0.043 0.06,0.043 l 0.744,0 c 0.037,0 0.049,-0.026 0.028,-0.079 L 0.674,0.271 C 0.659,0.228 0.638,0.223 0.616,0.213 0.539,0.19 0.462,0.168 0.437,0 L 0.199,-1.607 C 0.151,-1.918 0.194,-1.984 0.351,-1.984 l 0.2,0 c 0.247,0 0.321,0.356 0.368,0.329 l 0.079,-0.034 c 0.013,0 0.017,-0.018 0.013,-0.035 L 0.963,-2.054 C 0.945,-2.15 0.891,-2.182 0.816,-2.182 l -1.312,0 c -0.035,0 -0.046,0.022 -0.023,0.076 l 0.023,0.055 c 0.02,0.035 0.033,0.047 0.057,0.053 0.072,0.026 0.154,0.046 0.176,0.219 L 0,0 Z"
             style="fill:#818385;fill-opacity:1;fill-rule:nonzero;stroke:none"
             id="path258"
             inkscape:connector-curvature="0" />
        </g>
        <g
           id="g260"
           transform="translate(1093.0571,26.6558)">
          <path
             d="m 0,0 0.45,1.022 0.007,0 L 0.572,0 0,0 Z M 1.275,-0.802 C 1.18,-0.767 1.126,-0.755 1.101,-0.558 1.002,0.043 0.895,0.774 0.801,1.488 0.801,1.547 0.789,1.6 0.753,1.6 l -0.494,0 C 0.229,1.6 0.2,1.594 0.186,1.557 L 0.165,1.505 C 0.115,1.418 0.24,1.44 0.297,1.365 0.318,1.328 0.374,1.274 0.302,1.112 l -0.729,-1.619 c -0.06,-0.129 -0.111,-0.222 -0.211,-0.27 -0.047,-0.025 -0.081,-0.032 -0.099,-0.07 L -0.77,-0.933 c -0.033,-0.07 0.019,-0.054 0.051,-0.054 l 0.426,0 c 0.031,0 0.043,0.029 0.058,0.049 l 0.038,0.068 c 0.052,0.079 -0.166,0.061 -0.096,0.218 l 0.191,0.416 0.709,0 0.04,-0.355 C 0.672,-0.841 0.537,-0.767 0.495,-0.856 L 0.462,-0.919 C 0.442,-0.966 0.45,-0.987 0.489,-0.987 l 0.699,0 c 0.02,0 0.045,0.01 0.063,0.04 l 0.047,0.089 c 0.012,0.017 0.008,0.049 -0.023,0.056"
             style="fill:#818385;fill-opacity:1;fill-rule:nonzero;stroke:none"
             id="path262"
             inkscape:connector-curvature="0" />
        </g>
        <g
           id="g264"
           transform="translate(1096.8418,26.0719)">
          <path
             d="M 0,0 C -0.024,-0.185 0.03,-0.183 0.15,-0.218 0.182,-0.225 0.186,-0.257 0.173,-0.285 L 0.13,-0.363 C 0.117,-0.393 0.1,-0.404 0.075,-0.404 l -0.742,0 c -0.037,0 -0.045,0.023 -0.027,0.078 l 0.027,0.053 c 0.018,0.036 0.036,0.048 0.058,0.055 0.078,0.025 0.148,0.046 0.177,0.218 l 0.215,1.461 -0.005,0.009 -0.919,-1.793 c -0.025,-0.047 -0.04,-0.081 -0.06,-0.081 l -0.05,0 c -0.017,0 -0.032,0.052 -0.04,0.117 l -0.365,1.725 -0.006,0 L -1.871,0 c -0.03,-0.185 0.018,-0.183 0.144,-0.218 0.038,-0.007 0.038,-0.039 0.019,-0.067 l -0.036,-0.078 c -0.014,-0.03 -0.032,-0.041 -0.053,-0.041 l -0.502,0 c -0.044,0 -0.048,0.023 -0.021,0.078 l 0.021,0.053 c 0.014,0.036 0.029,0.048 0.056,0.055 0.078,0.025 0.151,0.046 0.176,0.218 l 0.265,1.799 c -0.04,0.106 -0.141,0.178 -0.202,0.204 -0.038,0.014 -0.038,0.037 -0.023,0.066 l 0.037,0.077 c 0.005,0.031 0.028,0.037 0.051,0.037 l 0.432,0 c 0.07,0 0.119,-0.037 0.136,-0.143 l 0.355,-1.716 0.894,1.735 c 0.047,0.081 0.095,0.124 0.157,0.124 l 0.471,0 c 0.036,0 0.048,-0.026 0.029,-0.078 L 0.509,2.04 C 0.489,2.007 0.474,1.996 0.444,1.983 0.362,1.959 0.294,1.944 0.269,1.768 L 0,0 Z"
             style="fill:#818385;fill-opacity:1;fill-rule:nonzero;stroke:none"
             id="path266"
             inkscape:connector-curvature="0" />
        </g>
        <g
           id="g268"
           transform="translate(1098.2097,25.8333)">
          <path
             d="m 0,0 c -0.156,0 -0.276,0.053 -0.233,0.329 l 0.115,0.796 0.191,0 C 0.319,1.125 0.43,0.866 0.43,0.643 0.43,0.407 0.33,0 0,0 m 0.058,2.241 0.179,0 C 0.43,2.241 0.519,2.097 0.519,1.896 0.519,1.533 0.312,1.32 0.098,1.32 l -0.183,0 0.143,0.921 z m 0.389,-0.993 0,0.012 c 0.221,0.06 0.488,0.277 0.488,0.636 0,0.339 -0.19,0.526 -0.54,0.526 l -0.906,0 c -0.012,0 -0.031,-0.017 -0.046,-0.052 L -0.595,2.278 C -0.617,2.245 -0.591,2.235 -0.557,2.221 -0.441,2.195 -0.4,2.134 -0.419,1.995 L -0.708,0.072 c -0.018,-0.107 0,-0.17 0.042,-0.195 0.13,-0.067 0.301,-0.089 0.559,-0.089 0.77,0 0.978,0.506 0.978,0.851 0,0.114 -0.045,0.554 -0.424,0.609"
             style="fill:#818385;fill-opacity:1;fill-rule:nonzero;stroke:none"
             id="path270"
             inkscape:connector-curvature="0" />
        </g>
        <g
           id="g272"
           transform="translate(1099.8474,26.6558)">
          <path
             d="m 0,0 0.456,1.022 0.004,0 L 0.568,0 0,0 Z M 1.272,-0.802 C 1.176,-0.767 1.124,-0.755 1.1,-0.558 1.005,0.043 0.89,0.774 0.802,1.488 0.802,1.547 0.788,1.6 0.749,1.6 l -0.494,0 C 0.228,1.6 0.201,1.594 0.183,1.557 L 0.162,1.505 C 0.112,1.418 0.242,1.44 0.291,1.365 0.315,1.328 0.375,1.274 0.303,1.112 l -0.727,-1.619 c -0.066,-0.129 -0.118,-0.222 -0.217,-0.27 -0.044,-0.025 -0.08,-0.032 -0.095,-0.07 L -0.77,-0.933 c -0.032,-0.07 0.021,-0.054 0.049,-0.054 l 0.43,0 c 0.029,0 0.042,0.029 0.057,0.049 l 0.039,0.068 c 0.044,0.079 -0.17,0.061 -0.099,0.218 l 0.189,0.416 0.707,0 0.046,-0.355 C 0.669,-0.841 0.536,-0.767 0.491,-0.856 L 0.463,-0.919 C 0.44,-0.966 0.456,-0.987 0.486,-0.987 l 0.704,0 c 0.023,0 0.044,0.01 0.063,0.04 l 0.043,0.089 c 0.013,0.017 0.003,0.049 -0.024,0.056"
             style="fill:#818385;fill-opacity:1;fill-rule:nonzero;stroke:none"
             id="path274"
             inkscape:connector-curvature="0" />
        </g>
        <g
           id="g276"
           transform="translate(1103.075,26.3528)">
          <path
             d="m 0,0 0.004,0 0.22,1.498 C 0.254,1.685 0.208,1.678 0.079,1.716 0.045,1.721 0.045,1.749 0.062,1.778 l 0.035,0.081 c 0.015,0.026 0.029,0.043 0.055,0.043 l 0.5,0 c 0.037,0 0.047,-0.025 0.027,-0.079 L 0.652,1.769 C 0.635,1.726 0.62,1.721 0.598,1.711 0.522,1.688 0.447,1.665 0.42,1.498 L 0.116,-0.577 C 0.101,-0.643 0.074,-0.685 0.029,-0.685 l -0.205,0 c -0.036,0 -0.062,0.024 -0.123,0.167 l -0.779,1.783 -0.003,0 -0.224,-1.545 c -0.024,-0.186 0.022,-0.184 0.148,-0.219 0.032,-0.007 0.037,-0.039 0.022,-0.066 l -0.042,-0.078 c -0.016,-0.03 -0.031,-0.042 -0.055,-0.042 l -0.497,0 c -0.041,0 -0.053,0.023 -0.026,0.079 l 0.026,0.053 c 0.011,0.035 0.033,0.047 0.055,0.054 0.075,0.025 0.15,0.046 0.169,0.219 l 0.269,1.799 c -0.036,0.105 -0.137,0.177 -0.197,0.202 -0.039,0.014 -0.038,0.038 -0.028,0.067 l 0.042,0.078 c 0.009,0.03 0.027,0.036 0.049,0.036 l 0.484,0 c 0.065,-0.006 0.09,-0.077 0.13,-0.153 L 0,0 Z"
             style="fill:#818385;fill-opacity:1;fill-rule:nonzero;stroke:none"
             id="path278"
             inkscape:connector-curvature="0" />
        </g>
        <g
           id="g280"
           transform="translate(1105.6313,25.8672)">
          <path
             d="m 0,0 c -0.017,-0.106 -0.037,-0.196 -0.099,-0.196 l -0.286,0 c -0.054,0 -0.033,0.101 -0.025,0.138 L -0.399,0 -0.409,0.009 c -0.068,-0.127 -0.31,-0.254 -0.491,-0.254 -0.656,0 -0.937,0.639 -0.937,1.145 0,0.665 0.418,1.53 1.355,1.53 0.321,0 0.524,-0.131 0.591,-0.186 C 0.137,2.225 0.129,2.197 0.128,2.171 L 0.079,1.842 C 0.079,1.83 0.069,1.823 0.062,1.809 L 0,1.75 c -0.068,-0.062 -0.063,0.47 -0.514,0.47 -0.581,0 -0.856,-0.752 -0.856,-1.284 0,-0.535 0.226,-0.927 0.558,-0.927 0.332,0 0.493,0.328 0.493,0.544 0,0.092 -0.011,0.156 -0.091,0.187 -0.045,0.052 -0.112,0.049 -0.086,0.105 l 0.038,0.074 c 0.019,0.036 0.04,0.048 0.073,0.048 l 0.464,0 c 0.058,0 0.051,-0.036 0.049,-0.098 L 0,0 Z"
             style="fill:#818385;fill-opacity:1;fill-rule:nonzero;stroke:none"
             id="path282"
             inkscape:connector-curvature="0" />
        </g>
        <g
           id="g284"
           transform="translate(1119.0825,26.0719)">
          <path
             d="M 0,0 C -0.027,-0.185 0.023,-0.183 0.148,-0.218 0.183,-0.225 0.183,-0.257 0.167,-0.285 L 0.135,-0.363 C 0.116,-0.393 0.097,-0.404 0.074,-0.404 l -0.745,0 c -0.035,0 -0.042,0.023 -0.023,0.078 l 0.023,0.053 c 0.015,0.036 0.035,0.048 0.057,0.055 0.075,0.025 0.152,0.046 0.178,0.218 L -0.22,1.461 -0.224,1.47 -1.145,-0.323 C -1.168,-0.37 -1.187,-0.404 -1.209,-0.404 l -0.04,0 c -0.024,0 -0.035,0.052 -0.047,0.117 l -0.36,1.725 -0.007,0 L -1.875,0 c -0.027,-0.185 0.021,-0.183 0.148,-0.218 0.035,-0.007 0.035,-0.039 0.02,-0.067 l -0.039,-0.078 c -0.019,-0.03 -0.034,-0.041 -0.053,-0.041 l -0.504,0 c -0.041,0 -0.049,0.023 -0.025,0.078 l 0.025,0.053 c 0.012,0.036 0.033,0.048 0.055,0.055 0.074,0.025 0.152,0.046 0.173,0.218 l 0.269,1.799 c -0.038,0.106 -0.14,0.178 -0.201,0.204 -0.037,0.014 -0.037,0.037 -0.024,0.066 l 0.037,0.077 c 0.012,0.031 0.03,0.037 0.054,0.037 l 0.427,0 c 0.076,0 0.121,-0.037 0.142,-0.143 l 0.352,-1.716 0.899,1.735 c 0.038,0.081 0.093,0.124 0.148,0.124 l 0.472,0 c 0.046,0 0.05,-0.026 0.028,-0.078 L 0.508,2.04 C 0.488,2.007 0.467,1.996 0.438,1.983 0.355,1.959 0.296,1.944 0.268,1.768 L 0,0 Z"
             style="fill:#818385;fill-opacity:1;fill-rule:nonzero;stroke:none"
             id="path286"
             inkscape:connector-curvature="0" />
        </g>
        <g
           id="g288"
           transform="translate(1120.1693,26.6558)">
          <path
             d="m 0,0 0.452,1.022 0.001,0 L 0.571,0 0,0 Z M 1.272,-0.802 C 1.177,-0.767 1.125,-0.755 1.095,-0.558 1.005,0.043 0.889,0.774 0.801,1.488 0.801,1.547 0.787,1.6 0.752,1.6 l -0.497,0 C 0.228,1.6 0.196,1.594 0.185,1.557 L 0.162,1.505 C 0.112,1.418 0.238,1.44 0.288,1.365 0.315,1.328 0.374,1.274 0.3,1.112 l -0.726,-1.619 c -0.062,-0.129 -0.112,-0.222 -0.218,-0.27 -0.039,-0.025 -0.078,-0.032 -0.091,-0.07 l -0.036,-0.086 c -0.033,-0.07 0.017,-0.054 0.049,-0.054 l 0.428,0 c 0.031,0 0.042,0.029 0.059,0.049 l 0.038,0.068 c 0.047,0.079 -0.172,0.061 -0.1,0.218 l 0.187,0.416 0.711,0 0.043,-0.355 C 0.669,-0.841 0.538,-0.767 0.49,-0.856 L 0.462,-0.919 C 0.442,-0.966 0.452,-0.987 0.49,-0.987 l 0.695,0 c 0.025,0 0.045,0.01 0.066,0.04 l 0.046,0.089 c 0.011,0.017 0.004,0.049 -0.025,0.056"
             style="fill:#818385;fill-opacity:1;fill-rule:nonzero;stroke:none"
             id="path290"
             inkscape:connector-curvature="0" />
        </g>
        <g
           id="g292"
           transform="translate(1122.4569,27.0697)">
          <path
             d="m 0,0 0.006,-0.012 0.882,1.197 0.344,0 L 1.211,1.031 C 1.203,0.928 1.03,0.914 0.802,0.629 L 0.334,0.054 c 0.205,-0.438 0.488,-1.018 0.552,-1.13 0.057,-0.105 0.118,-0.159 0.108,-0.196 l -0.016,-0.13 -0.359,0 c -0.08,0 -0.15,0.07 -0.238,0.273 l -0.398,0.984 -0.007,0 -0.12,-0.853 C -0.178,-1.183 -0.127,-1.181 0,-1.215 0.032,-1.222 0.034,-1.255 0.022,-1.282 L -0.022,-1.36 c -0.013,-0.031 -0.025,-0.042 -0.05,-0.042 l -0.75,0 c -0.03,0 -0.045,0.022 -0.022,0.078 l 0.022,0.053 c 0.021,0.036 0.032,0.049 0.062,0.056 0.073,0.024 0.148,0.046 0.175,0.217 l 0.263,1.78 c 0.028,0.187 -0.021,0.179 -0.146,0.216 -0.03,0.006 -0.03,0.033 -0.02,0.063 l 0.043,0.081 c 0.012,0.027 0.023,0.043 0.049,0.043 l 0.746,0 c 0.037,0 0.043,-0.026 0.024,-0.078 L 0.354,1.053 C 0.334,1.009 0.317,1.004 0.29,0.994 0.216,0.972 0.141,0.949 0.119,0.782 L 0,0 Z"
             style="fill:#818385;fill-opacity:1;fill-rule:nonzero;stroke:none"
             id="path294"
             inkscape:connector-curvature="0" />
        </g>
        <g
           id="g296"
           transform="translate(1124.2212,26.6558)">
          <path
             d="m 0,0 0.449,1.022 0.008,0 L 0.574,0 0,0 Z M 1.272,-0.802 C 1.18,-0.767 1.123,-0.755 1.1,-0.558 1.004,0.043 0.893,0.774 0.801,1.488 0.801,1.547 0.79,1.6 0.755,1.6 l -0.497,0 C 0.226,1.6 0.2,1.594 0.185,1.557 L 0.162,1.505 C 0.113,1.418 0.24,1.44 0.292,1.365 0.316,1.328 0.374,1.274 0.303,1.112 l -0.729,-1.619 c -0.062,-0.129 -0.111,-0.222 -0.213,-0.27 -0.048,-0.025 -0.079,-0.032 -0.101,-0.07 l -0.031,-0.086 c -0.032,-0.07 0.02,-0.054 0.053,-0.054 l 0.427,0 c 0.031,0 0.041,0.029 0.056,0.049 l 0.042,0.068 c 0.047,0.079 -0.171,0.061 -0.102,0.218 l 0.192,0.416 0.712,0 0.037,-0.355 c 0.03,-0.25 -0.11,-0.176 -0.152,-0.265 L 0.462,-0.919 C 0.443,-0.966 0.449,-0.987 0.489,-0.987 l 0.702,0 c 0.017,0 0.039,0.01 0.061,0.04 l 0.045,0.089 c 0.01,0.017 0.007,0.049 -0.025,0.056"
             style="fill:#818385;fill-opacity:1;fill-rule:nonzero;stroke:none"
             id="path298"
             inkscape:connector-curvature="0" />
        </g>
        <g
           id="g300"
           transform="translate(1127.4487,26.3528)">
          <path
             d="M 0,0 0.007,0 0.229,1.498 C 0.256,1.685 0.205,1.678 0.082,1.716 0.048,1.721 0.048,1.749 0.056,1.778 l 0.043,0.081 c 0.014,0.026 0.03,0.043 0.058,0.043 l 0.498,0 c 0.037,0 0.049,-0.025 0.024,-0.079 L 0.655,1.769 C 0.642,1.726 0.62,1.721 0.598,1.711 0.523,1.688 0.447,1.665 0.422,1.498 L 0.116,-0.577 C 0.107,-0.643 0.074,-0.685 0.032,-0.685 l -0.205,0 c -0.043,0 -0.06,0.024 -0.128,0.167 l -0.769,1.783 -0.008,0 -0.225,-1.545 c -0.028,-0.186 0.024,-0.184 0.149,-0.219 0.031,-0.007 0.038,-0.039 0.019,-0.066 l -0.037,-0.078 c -0.016,-0.03 -0.031,-0.042 -0.057,-0.042 l -0.503,0 c -0.029,0 -0.045,0.023 -0.024,0.079 l 0.024,0.053 c 0.022,0.035 0.034,0.047 0.058,0.054 0.071,0.025 0.148,0.046 0.172,0.219 l 0.273,1.799 C -1.273,1.624 -1.371,1.696 -1.433,1.721 -1.472,1.735 -1.466,1.759 -1.46,1.788 l 0.041,0.078 c 0.016,0.03 0.031,0.036 0.054,0.036 l 0.481,0 C -0.821,1.896 -0.793,1.825 -0.759,1.749 L 0,0 Z"
             style="fill:#818385;fill-opacity:1;fill-rule:nonzero;stroke:none"
             id="path302"
             inkscape:connector-curvature="0" />
        </g>
        <g
           id="g304"
           transform="translate(1128.5889,26.6558)">
          <path
             d="m 0,0 0.452,1.022 0.01,0 L 0.577,0 0,0 Z M 1.276,-0.802 C 1.181,-0.767 1.125,-0.755 1.103,-0.558 1.007,0.043 0.894,0.774 0.802,1.488 0.802,1.547 0.792,1.6 0.751,1.6 l -0.492,0 C 0.228,1.6 0.202,1.594 0.189,1.557 L 0.166,1.505 C 0.114,1.418 0.245,1.44 0.295,1.365 0.32,1.328 0.378,1.274 0.303,1.112 l -0.727,-1.619 c -0.064,-0.129 -0.113,-0.222 -0.213,-0.27 -0.044,-0.025 -0.081,-0.032 -0.096,-0.07 l -0.038,-0.086 c -0.026,-0.07 0.021,-0.054 0.053,-0.054 l 0.432,0 c 0.028,0 0.036,0.029 0.051,0.049 l 0.043,0.068 c 0.047,0.079 -0.167,0.061 -0.096,0.218 l 0.188,0.416 0.707,0 0.043,-0.355 C 0.676,-0.841 0.54,-0.767 0.496,-0.856 L 0.467,-0.919 C 0.444,-0.966 0.452,-0.987 0.489,-0.987 l 0.703,0 c 0.023,0 0.05,0.01 0.062,0.04 l 0.044,0.089 c 0.014,0.017 0.01,0.049 -0.022,0.056"
             style="fill:#818385;fill-opacity:1;fill-rule:nonzero;stroke:none"
             id="path306"
             inkscape:connector-curvature="0" />
        </g>
        <g
           id="g308"
           transform="translate(1131.8201,26.3528)">
          <path
             d="M 0,0 0.007,0 0.228,1.498 C 0.259,1.685 0.208,1.678 0.081,1.716 0.049,1.721 0.049,1.749 0.063,1.778 l 0.034,0.081 c 0.021,0.026 0.037,0.043 0.06,0.043 l 0.499,0 c 0.035,0 0.047,-0.025 0.025,-0.079 L 0.656,1.769 C 0.642,1.726 0.623,1.721 0.598,1.711 0.528,1.688 0.447,1.665 0.429,1.498 L 0.119,-0.577 C 0.11,-0.643 0.079,-0.685 0.031,-0.685 l -0.202,0 c -0.04,0 -0.062,0.024 -0.128,0.167 l -0.771,1.783 -0.007,0 -0.225,-1.545 c -0.022,-0.186 0.024,-0.184 0.148,-0.219 0.033,-0.007 0.039,-0.039 0.022,-0.066 l -0.041,-0.078 c -0.01,-0.03 -0.03,-0.042 -0.056,-0.042 l -0.499,0 c -0.037,0 -0.049,0.023 -0.023,0.079 l 0.023,0.053 c 0.019,0.035 0.033,0.047 0.053,0.054 0.08,0.025 0.149,0.046 0.178,0.219 l 0.268,1.799 c -0.038,0.105 -0.136,0.177 -0.205,0.202 -0.037,0.014 -0.032,0.038 -0.021,0.067 l 0.035,0.078 c 0.016,0.03 0.034,0.036 0.056,0.036 l 0.484,0 C -0.816,1.896 -0.788,1.825 -0.753,1.749 L 0,0 Z"
             style="fill:#818385;fill-opacity:1;fill-rule:nonzero;stroke:none"
             id="path310"
             inkscape:connector-curvature="0" />
        </g>
        <g
           id="g312"
           transform="translate(1134.0581,25.8333)">
          <path
             d="m 0,0 c -0.153,0 -0.275,0.053 -0.233,0.329 l 0.118,0.796 0.19,0 C 0.321,1.125 0.428,0.866 0.428,0.643 0.428,0.407 0.328,0 0,0 m 0.056,2.241 0.18,0 C 0.428,2.241 0.521,2.097 0.521,1.896 0.521,1.533 0.31,1.32 0.101,1.32 l -0.19,0 0.145,0.921 z m 0.385,-0.993 0,0.012 c 0.229,0.06 0.495,0.277 0.495,0.636 0,0.339 -0.188,0.526 -0.544,0.526 l -0.9,0 C -0.524,2.422 -0.542,2.405 -0.56,2.37 L -0.599,2.278 C -0.62,2.245 -0.591,2.235 -0.555,2.221 -0.441,2.195 -0.4,2.134 -0.419,1.995 L -0.703,0.072 c -0.02,-0.107 0,-0.17 0.036,-0.195 0.128,-0.067 0.303,-0.089 0.558,-0.089 0.776,0 0.982,0.506 0.982,0.851 0,0.114 -0.049,0.554 -0.432,0.609"
             style="fill:#818385;fill-opacity:1;fill-rule:nonzero;stroke:none"
             id="path314"
             inkscape:connector-curvature="0" />
        </g>
        <g
           id="g316"
           transform="translate(1136.6891,28.2548)">
          <path
             d="M 0,0 C 0.052,0 0.075,-0.043 0.057,-0.133 L 0.019,-0.402 c 0,-0.011 -0.009,-0.019 -0.014,-0.031 L -0.057,-0.496 C -0.122,-0.56 -0.113,-0.2 -0.297,-0.2 l -0.361,0 -0.131,-0.874 0.609,0 c 0.037,0 0.045,-0.02 0.03,-0.057 l -0.056,-0.133 c -0.02,-0.037 -0.049,-0.045 -0.091,-0.045 l -0.53,0 -0.106,-0.701 c -0.044,-0.312 -0.007,-0.377 0.151,-0.377 l 0.233,0 c 0.244,0 0.323,0.355 0.369,0.328 l 0.078,-0.034 c 0.012,0 0.016,-0.018 0.012,-0.035 L -0.142,-2.456 C -0.15,-2.553 -0.207,-2.587 -0.281,-2.587 l -1.045,0 c -0.07,0 -0.123,-0.003 -0.089,0.273 l 0.284,1.886 c 0.021,0.141 -0.02,0.201 -0.134,0.228 -0.039,0.014 -0.065,0.024 -0.041,0.057 l 0.036,0.092 C -1.256,-0.016 -1.236,0 -1.225,0 L 0,0 Z"
             style="fill:#818385;fill-opacity:1;fill-rule:nonzero;stroke:none"
             id="path318"
             inkscape:connector-curvature="0" />
        </g>
        <g
           id="g320"
           transform="translate(1137.7283,27.0173)">
          <path
             d="m 0,0 -0.178,0 0.153,1.056 0.187,0 C 0.348,1.056 0.439,0.868 0.439,0.639 0.439,0.275 0.236,0 0,0 m 0.897,0.639 c 0,0.323 -0.141,0.599 -0.564,0.599 l -0.918,0 c -0.014,0 -0.034,-0.018 -0.051,-0.052 L -0.675,1.094 C -0.699,1.061 -0.665,1.051 -0.63,1.037 -0.514,1.011 -0.474,0.95 -0.493,0.81 L -0.757,-0.945 C -0.783,-1.117 -0.859,-1.138 -0.935,-1.164 -0.959,-1.17 -0.978,-1.182 -0.991,-1.217 l -0.024,-0.054 c -0.02,-0.056 -0.014,-0.077 0.028,-0.077 l 0.74,0 c 0.026,0 0.038,0.011 0.049,0.04 l 0.044,0.078 c 0.015,0.027 0.015,0.06 -0.022,0.066 -0.123,0.035 -0.175,0.033 -0.142,0.219 l 0.107,0.739 0.201,0 0.279,-1.031 c 0.019,-0.071 0.067,-0.111 0.11,-0.111 l 0.426,0 0,0.118 c -0.09,0.099 -0.218,0.509 -0.436,1.079 0.291,0.114 0.528,0.432 0.528,0.79"
             style="fill:#818385;fill-opacity:1;fill-rule:nonzero;stroke:none"
             id="path322"
             inkscape:connector-curvature="0" />
        </g>
        <g
           id="g324"
           transform="translate(1141.022,26.0719)">
          <path
             d="M 0,0 C -0.025,-0.185 0.025,-0.183 0.148,-0.218 0.179,-0.225 0.186,-0.257 0.172,-0.285 L 0.131,-0.363 C 0.117,-0.393 0.098,-0.404 0.072,-0.404 l -0.74,0 c -0.043,0 -0.048,0.023 -0.022,0.078 l 0.022,0.053 c 0.015,0.036 0.034,0.048 0.052,0.055 0.074,0.025 0.158,0.046 0.18,0.218 l 0.217,1.461 -0.003,0.009 -0.922,-1.793 c -0.02,-0.047 -0.042,-0.081 -0.062,-0.081 l -0.047,0 c -0.018,0 -0.03,0.052 -0.043,0.117 l -0.358,1.725 -0.008,0 L -1.868,0 c -0.036,-0.185 0.015,-0.183 0.14,-0.218 0.037,-0.007 0.037,-0.039 0.022,-0.067 l -0.037,-0.078 c -0.013,-0.03 -0.032,-0.041 -0.056,-0.041 l -0.503,0 c -0.041,0 -0.048,0.023 -0.024,0.078 l 0.024,0.053 c 0.012,0.036 0.034,0.048 0.056,0.055 0.076,0.025 0.147,0.046 0.175,0.218 l 0.272,1.799 c -0.044,0.106 -0.146,0.178 -0.21,0.204 -0.035,0.014 -0.035,0.037 -0.022,0.066 l 0.04,0.077 c 0.012,0.031 0.027,0.037 0.052,0.037 l 0.424,0 c 0.077,0 0.122,-0.037 0.146,-0.143 l 0.35,-1.716 0.899,1.735 c 0.04,0.081 0.089,0.124 0.149,0.124 l 0.474,0 c 0.043,0 0.053,-0.026 0.027,-0.078 L 0.503,2.04 C 0.491,2.007 0.468,1.996 0.441,1.983 0.359,1.959 0.294,1.944 0.272,1.768 L 0,0 Z"
             style="fill:#818385;fill-opacity:1;fill-rule:nonzero;stroke:none"
             id="path326"
             inkscape:connector-curvature="0" />
        </g>
        <g
           id="g328"
           transform="translate(1143.3351,26.6989)">
          <path
             d="m 0,0 c -0.105,-0.695 -0.385,-1.077 -0.887,-1.077 -0.541,0 -0.775,0.412 -0.67,1.097 l 0.166,1.133 c 0.029,0.186 -0.022,0.179 -0.154,0.216 -0.03,0.006 -0.03,0.033 -0.012,0.063 l 0.041,0.081 c 0.011,0.026 0.033,0.043 0.05,0.043 l 0.741,0 c 0.042,0 0.05,-0.026 0.026,-0.078 L -0.725,1.424 C -0.737,1.38 -0.754,1.375 -0.776,1.365 -0.854,1.343 -0.923,1.32 -0.949,1.153 l -0.183,-1.192 c -0.072,-0.448 0.051,-0.739 0.365,-0.739 0.303,0 0.493,0.291 0.569,0.798 l 0.175,1.133 c 0.027,0.186 -0.026,0.179 -0.149,0.216 -0.036,0.006 -0.036,0.033 -0.019,0.063 l 0.037,0.081 c 0.015,0.026 0.026,0.043 0.057,0.043 l 0.499,0 c 0.039,0 0.048,-0.026 0.03,-0.078 L 0.402,1.424 C 0.388,1.38 0.369,1.375 0.346,1.365 0.269,1.343 0.191,1.32 0.173,1.153 L 0,0 Z"
             style="fill:#818385;fill-opacity:1;fill-rule:nonzero;stroke:none"
             id="path330"
             inkscape:connector-curvature="0" />
        </g>
        <g
           id="g332"
           transform="translate(1144.6598,26.0719)">
          <path
             d="M 0,0 C -0.025,-0.185 0.02,-0.183 0.143,-0.218 0.177,-0.225 0.178,-0.257 0.164,-0.285 L 0.129,-0.363 C 0.113,-0.393 0.095,-0.404 0.073,-0.404 l -0.742,0 c -0.041,0 -0.05,0.023 -0.033,0.078 l 0.033,0.053 c 0.012,0.036 0.03,0.048 0.053,0.055 0.077,0.025 0.151,0.046 0.174,0.218 l 0.289,1.947 -0.585,0 c -0.062,0 -0.107,0.02 -0.065,0.092 l 0.116,0.201 c 0.022,0.042 0.027,0.073 0.055,0.056 L -0.594,2.261 C -0.545,2.22 -0.45,2.183 -0.307,2.183 l 1.259,0 c 0.037,0 0.055,-0.031 0.028,-0.077 L 0.91,1.992 C 0.873,1.948 0.846,1.947 0.802,1.947 l -0.516,0 L 0,0 Z"
             style="fill:#818385;fill-opacity:1;fill-rule:nonzero;stroke:none"
             id="path334"
             inkscape:connector-curvature="0" />
        </g>
        <g
           id="g336"
           transform="translate(1147.2903,26.6989)">
          <path
             d="m 0,0 c -0.101,-0.695 -0.383,-1.077 -0.883,-1.077 -0.542,0 -0.773,0.412 -0.671,1.097 l 0.162,1.133 c 0.036,0.186 -0.011,0.179 -0.145,0.216 -0.032,0.006 -0.032,0.033 -0.017,0.063 l 0.041,0.081 c 0.013,0.026 0.033,0.043 0.055,0.043 l 0.743,0 c 0.037,0 0.046,-0.026 0.02,-0.078 L -0.715,1.424 C -0.73,1.38 -0.745,1.375 -0.77,1.365 -0.852,1.343 -0.926,1.32 -0.95,1.153 l -0.18,-1.192 c -0.069,-0.448 0.054,-0.739 0.364,-0.739 0.307,0 0.5,0.291 0.576,0.798 l 0.166,1.133 c 0.031,0.186 -0.022,0.179 -0.145,0.216 -0.034,0.006 -0.034,0.033 -0.017,0.063 l 0.038,0.081 c 0.014,0.026 0.025,0.043 0.051,0.043 l 0.5,0 c 0.04,0 0.048,-0.026 0.024,-0.078 L 0.403,1.424 C 0.393,1.38 0.374,1.375 0.351,1.365 0.271,1.343 0.199,1.32 0.171,1.153 L 0,0 Z"
             style="fill:#818385;fill-opacity:1;fill-rule:nonzero;stroke:none"
             id="path338"
             inkscape:connector-curvature="0" />
        </g>
        <g
           id="g340"
           transform="translate(1081.5576,32.6179)">
          <path
             d="m 0,0 c -0.217,-2.009 -1.975,-1.689 -1.975,-1.689 l 0.157,-0.856 6.124,0 0.282,0.821 C 2.701,-1.78 3.23,-0.32 3.23,-0.32 c 0,0 1.548,8.089 1.56,8.124 0.24,1.232 1.857,0.952 1.857,0.952 l -0.169,0.897 -6.096,0 -0.338,-0.886 c 0,0 1.653,0.192 1.456,-1.137 -0.004,-0.014 -1.517,-7.735 -1.517,-7.735"
             style="fill:#01539c;fill-opacity:1;fill-rule:nonzero;stroke:none"
             id="path342"
             inkscape:connector-curvature="0" />
        </g>
        <g
           id="g344"
           transform="translate(1090.798,38.7068)">
          <path
             d="m 0,0 0.217,1.068 -4.099,-0.537 -0.12,-0.665 c 0,0 1.387,0.349 0.907,-1.501 l -1.052,-5.377 2.773,0 1.112,5.64 c 0,0 0.101,0.807 1.185,0.841 0,0 1.199,-0.019 0.813,-1.679 l -0.971,-4.819 4.106,0.511 0.108,0.642 c 0,0 -1.441,-0.258 -1.008,1.039 l 0.665,3.566 c 0,0 0.335,2.033 -0.971,2.351 C 3.665,1.08 2.194,1.702 0,0"
             style="fill:#01539c;fill-opacity:1;fill-rule:nonzero;stroke:none"
             id="path346"
             inkscape:connector-curvature="0" />
        </g>
        <g
           id="g348"
           transform="translate(1099.9161,31.6412)">
          <path
             d="m 0,0 c 0,0 -2.208,-0.348 -3.175,0.604 0,0 -1.764,1.344 -0.061,4.634 1.703,3.289 5.478,2.854 5.478,2.854 L 2.44,9.134 c 0,0 0.188,0.952 -1.415,0.779 l 0.221,0.706 4.357,0.555 -1.774,-9.012 c 0,0 -0.389,-1.111 1.403,-0.984 L 5.12,0.562 0.676,-0.014 2.053,7.068 c 0,0 -1.564,0.407 -2.513,-1.885 0,0 -1.76,-4.23 0.753,-4.504 L 0.189,0.056 0,0 Z"
             style="fill:#01539c;fill-opacity:1;fill-rule:nonzero;stroke:none"
             id="path350"
             inkscape:connector-curvature="0" />
        </g>
        <g
           id="g352"
           transform="translate(1111.0015,35.3278)">
          <path
             d="m 0,0 c -0.654,-3.493 -2.119,-2.972 -2.119,-2.972 0,0 -1.315,0.158 -0.58,3.705 0.726,3.472 1.982,3.004 1.982,3.004 C -0.07,3.697 0.56,2.905 0,0 M -0.83,4.684 C -3.287,4.699 -5.525,2.781 -5.825,0.39 c -0.3,-2.386 1.447,-4.33 3.907,-4.341 2.459,-0.01 4.698,1.914 4.996,4.303 0.299,2.383 -1.445,4.322 -3.908,4.332"
             style="fill:#01539c;fill-opacity:1;fill-rule:nonzero;stroke:none"
             id="path354"
             inkscape:connector-curvature="0" />
        </g>
        <g
           id="g356"
           transform="translate(1125.0951,35.3278)">
          <path
             d="m 0,0 c -0.665,-3.493 -2.122,-2.972 -2.122,-2.972 0,0 -1.317,0.158 -0.582,3.705 0.72,3.472 1.983,3.004 1.983,3.004 C -0.073,3.697 0.556,2.905 0,0 M -0.833,4.684 C -3.294,4.699 -5.53,2.781 -5.831,0.39 c -0.298,-2.386 1.452,-4.33 3.908,-4.341 2.464,-0.01 4.704,1.914 4.999,4.303 0.302,2.383 -1.447,4.322 -3.909,4.332"
             style="fill:#01539c;fill-opacity:1;fill-rule:nonzero;stroke:none"
             id="path358"
             inkscape:connector-curvature="0" />
        </g>
        <g
           id="g360"
           transform="translate(1134.7861,35.3278)">
          <path
             d="m 0,0 c -0.665,-3.493 -2.123,-2.972 -2.123,-2.972 0,0 -1.313,0.158 -0.579,3.705 C -1.98,4.205 -0.72,3.737 -0.72,3.737 -0.073,3.697 0.553,2.905 0,0 M -0.833,4.684 C -3.294,4.699 -5.532,2.781 -5.829,0.39 c -0.299,-2.386 1.449,-4.33 3.91,-4.341 2.458,-0.01 4.696,1.914 4.994,4.303 0.301,2.383 -1.447,4.322 -3.908,4.332"
             style="fill:#01539c;fill-opacity:1;fill-rule:nonzero;stroke:none"
             id="path362"
             inkscape:connector-curvature="0" />
        </g>
        <g
           id="g364"
           transform="translate(1118.594,38.7775)">
          <path
             d="m 0,0 c 0,0 0.046,-0.205 -0.84,-4.279 -0.883,-4.067 -1.789,-5.262 -1.789,-5.262 -2.212,-4.112 -5.6,-3.572 -5.6,-3.572 -1.64,0 -3.071,1.38 -3.071,2.765 0,1.425 1.303,2.495 2.945,2.495 l 3.394,0.004 c 0,0 0.059,0.028 -0.214,-0.862 l -3.252,0 c -1.132,0 -1.821,-1.009 -1.821,-1.724 0,-0.85 0.997,-1.759 1.998,-1.759 0,0 0.986,-0.101 1.694,0.23 1.242,0.584 1.905,2.396 1.905,2.396 0.416,0.846 1.033,4.049 1.019,4.004 0,0 0.362,1.537 0.93,5.52 l -0.143,0 -1.344,0 0.234,0.924 c 1.082,0.157 1.498,0.863 1.498,0.863 0,0 1.259,1.777 2.081,2.213 1.91,1 3.379,-0.828 3.379,-0.828 L 1.083,1.426 c -0.648,0.681 -0.9,0.851 -0.9,0.851 -0.63,0.61 -1.118,-0.1 -1.118,-0.1 C -1.401,0.891 0.183,0.951 0.183,0.951 l 1.827,0 L 1.763,0 0,0 Z"
             style="fill:#01539c;fill-opacity:1;fill-rule:nonzero;stroke:none"
             id="path366"
             inkscape:connector-curvature="0" />
        </g>
        <g
           id="g368"
           transform="translate(1107.9063,30.9288)">
          <path
             d="m 0,0 -20.887,0 -0.259,-0.873 20.206,0 c 0,0 0.158,0.553 0.94,0.873"
             style="fill:#01539c;fill-opacity:1;fill-rule:nonzero;stroke:none"
             id="path370"
             inkscape:connector-curvature="0" />
        </g>
        <g
           id="g372"
           transform="translate(1117.5411,30.9288)">
          <path
             d="m 0,0 30.02,0 -0.202,-0.873 -30.129,0 c 0,0 0.247,0.395 0.311,0.873"
             style="fill:#01539c;fill-opacity:1;fill-rule:nonzero;stroke:none"
             id="path374"
             inkscape:connector-curvature="0" />
        </g>
        <g
           id="g376"
           transform="translate(1142.4319,31.6412)">
          <path
             d="m 0,0 c 0,0 -2.211,-0.348 -3.183,0.604 0,0 -1.758,1.344 -0.054,4.634 1.701,3.289 5.472,2.854 5.472,2.854 l 0.207,1.042 c 0,0 0.185,0.952 -1.42,0.779 L 1.245,10.619 5.6,11.174 3.827,2.162 c 0,0 -0.389,-1.111 1.403,-0.984 L 5.12,0.562 0.677,-0.014 2.05,7.068 c 0,0 -1.562,0.407 -2.514,-1.885 0,0 -1.757,-4.23 0.758,-4.504 L 0.188,0.056 0,0 Z"
             style="fill:#01539c;fill-opacity:1;fill-rule:nonzero;stroke:none"
             id="path378"
             inkscape:connector-curvature="0" />
        </g>
      </g>
    </g>
  </g>
</svg>
