<svg xmlns:xlink="http://www.w3.org/1999/xlink" xmlns="http://www.w3.org/2000/svg" class="css-ze2te4 css-qd6ojx" viewBox="0 0 70 43.45530568817516" width="110"  height="68" ><g transform="translate(-8.209876543209877, -21.4822236991223) scale(0.8641975308641976)" class="css-a5u24n" fill="#FD7014"><g xmlns="http://www.w3.org/2000/svg" fill="#FD7014"><path d="M85.049,59.401c-4.446-14.082-15.138-24.271-27.77-27.138c0.001-0.04,0.006-0.079,0.006-0.119   c0-4.018-3.268-7.286-7.285-7.286c-4.018,0-7.286,3.269-7.286,7.286c0,0.04,0.005,0.079,0.006,0.119   C30.089,35.13,19.397,45.319,14.951,59.401l-0.616,1.951h71.33L85.049,59.401z M50,27.858c2.218,0,4.027,1.701,4.242,3.864   c-1.397-0.183-2.813-0.278-4.243-0.278c-1.429,0-2.845,0.096-4.242,0.278C45.973,29.56,47.782,27.858,50,27.858z M18.48,58.353   c5.321-14.384,17.763-23.908,31.519-23.908c13.757,0,26.198,9.524,31.521,23.908H18.48z" fill="#FD7014"></path><path d="M90.5,64.358h-81v3h5.388c0,0.032-0.007,0.063-0.007,0.097c0,3.306,2.431,6.29,6.194,7.603l0.24,0.084h57.372l0.239-0.084   c3.762-1.313,6.192-4.298,6.192-7.603c0-0.033-0.008-0.063-0.008-0.097h5.39V64.358z M82.118,67.455   c0,2.203-1.949,3.914-3.953,4.687h-56.33c-2.004-0.771-3.954-2.483-3.954-4.687c0-0.033,0.007-0.064,0.008-0.097h64.219   C82.111,67.391,82.118,67.422,82.118,67.455z" fill="#FD7014"></path><path d="M53.501,38.407l-0.081,3.078c7.271,1.86,13.769,6.402,18.526,12.807l3.751,0.098C70.318,46.233,62.424,40.49,53.501,38.407   z" fill="#FD7014"></path></g></g></svg>