<?xml version="1.0" encoding="UTF-8" standalone="no"?>
<!-- Created with Inkscape (http://www.inkscape.org/) -->

<svg
   xmlns:dc="http://purl.org/dc/elements/1.1/"
   xmlns:cc="http://creativecommons.org/ns#"
   xmlns:rdf="http://www.w3.org/1999/02/22-rdf-syntax-ns#"
   xmlns:svg="http://www.w3.org/2000/svg"
   xmlns="http://www.w3.org/2000/svg"
   xmlns:sodipodi="http://sodipodi.sourceforge.net/DTD/sodipodi-0.dtd"
   xmlns:inkscape="http://www.inkscape.org/namespaces/inkscape"
   width="556.0296"
   height="330.37177"
   viewBox="0 0 147.11617 87.410865"
   version="1.1"
   id="svg8"
   inkscape:version="0.92.4 (5da689c313, 2019-01-14)"
   sodipodi:docname="Sasa_late_70s.svg">
  <defs
     id="defs2" />
  <sodipodi:namedview
     id="base"
     pagecolor="#ffffff"
     bordercolor="#666666"
     borderopacity="1.0"
     inkscape:pageopacity="0.0"
     inkscape:pageshadow="2"
     inkscape:zoom="0.35"
     inkscape:cx="374.38585"
     inkscape:cy="241.80013"
     inkscape:document-units="mm"
     inkscape:current-layer="layer1"
     showgrid="false"
     fit-margin-top="0"
     fit-margin-left="0"
     fit-margin-right="0"
     fit-margin-bottom="0"
     inkscape:window-width="1366"
     inkscape:window-height="745"
     inkscape:window-x="-8"
     inkscape:window-y="-8"
     inkscape:window-maximized="1"
     units="px" />
  <metadata
     id="metadata5">
    <rdf:RDF>
      <cc:Work
         rdf:about="">
        <dc:format>image/svg+xml</dc:format>
        <dc:type
           rdf:resource="http://purl.org/dc/dcmitype/StillImage" />
        <dc:title></dc:title>
      </cc:Work>
    </rdf:RDF>
  </metadata>
  <g
     inkscape:label="Layer 1"
     inkscape:groupmode="layer"
     id="layer1"
     transform="translate(218.41665,-145.56644)">
    <path
       style="fill:#036ec0;fill-opacity:1;stroke-width:0.06330545"
       d="m -149.40623,232.94161 c -4.70565,-0.19394 -9.10281,-0.59854 -13.32252,-1.22581 -21.54837,-3.20338 -39.58247,-12.08212 -48.94136,-24.09534 -3.80718,-4.88692 -6.01057,-10.07304 -6.63462,-15.6157 -0.15032,-1.33503 -0.14913,-4.15742 0.003,-5.44732 0.38482,-3.27832 1.11895,-5.88148 2.50424,-8.87968 1.86042,-4.02659 4.6169,-7.79981 8.26163,-11.30898 11.94533,-11.50106 31.99169,-19.05683 54.51903,-20.54904 4.91928,-0.32582 10.89461,-0.33809 15.81104,-0.0323 26.89444,1.67207 50.156644,12.02809 60.433784,26.90421 3.630298,5.25483 5.465543,10.80274 5.471472,16.54007 0.0019,1.67916 -0.059,2.50838 -0.299881,4.09375 -0.396344,2.60861 -1.117873,4.9502 -2.339797,7.59324 -1.46929,3.17815 -3.34179,5.97551 -5.939213,8.87266 -4.89919,5.4646 -11.542867,10.16001 -19.816901,14.00555 -7.728154,3.59186 -16.753844,6.25704 -26.250594,7.75148 -4.27406,0.67261 -7.91704,1.04888 -12.89767,1.33216 -1.58075,0.0898 -8.84306,0.13196 -10.5609,0.061 z"
       id="path852-2"
       inkscape:connector-curvature="0" />
    <path
       style="fill:#ffffff;stroke-width:0.0626651"
       d="m -139.50834,230.89903 c 4.53488,-0.30234 8.02194,-0.7262 11.8597,-1.44158 18.93763,-3.53018 34.416664,-12.93132 41.522033,-25.21824 2.225797,-3.84898 3.536094,-7.74563 4.039522,-12.01301 0.132298,-1.12144 0.150572,-4.49686 0.03026,-5.59054 -0.635871,-5.78082 -2.680549,-10.81007 -6.480402,-15.93966 -0.767873,-1.03661 -2.657143,-3.22146 -3.679835,-4.25558 -4.642984,-4.69486 -10.544538,-8.67748 -17.448328,-11.77489 -11.08318,-4.97253 -24.11929,-7.41773 -37.80842,-7.09184 -3.47066,0.0825 -6.43196,0.29638 -9.67657,0.6985 -20.23995,2.5084 -37.37576,11.54887 -45.78753,24.15657 -5.1395,7.70319 -6.64046,16.28152 -4.29654,24.55604 0.68312,2.4115 1.78106,4.96695 3.13112,7.28769 7.08999,12.18748 22.26824,21.47823 40.99363,25.09251 4.30729,0.83137 8.71405,1.34808 13.60029,1.59469 1.44508,0.0728 8.65299,0.0294 10.00108,-0.0608 z"
       id="path850-5"
       inkscape:connector-curvature="0" />
    <path
       inkscape:connector-curvature="0"
       id="path1054"
       d="m -109.86645,179.51655 c -0.76993,-0.13858 -1.44961,-0.50416 -1.98574,-1.06797 -1.91115,-2.00991 -0.91597,-5.32633 1.77819,-5.92575 0.5399,-0.12004 1.37837,-0.0861 1.88861,0.0771 0.74022,0.23635 1.43095,0.7632 1.86298,1.42091 0.70682,1.07605 0.78364,2.38262 0.21018,3.57461 -0.4146,0.8618 -1.29936,1.58982 -2.23853,1.84193 -0.38789,0.10415 -1.15469,0.14421 -1.51569,0.0791 z"
       style="fill:#ed2024;fill-opacity:1;stroke-width:0.05484242" />
    <path
       inkscape:connector-curvature="0"
       id="path1072"
       d="m -108.56787,178.94382 c 1.35079,-0.35183 2.30691,-1.57583 2.30691,-2.95322 0,-1.85188 -1.6658,-3.28598 -3.49284,-3.00704 -1.15057,0.17569 -2.07371,0.98172 -2.46674,2.15383 -0.15584,0.4648 -0.14194,1.302 0.0298,1.80122 0.52369,1.52125 2.10996,2.39926 3.62274,2.00521 z"
       style="fill:#ffffff;fill-opacity:1;stroke-width:0.0581038" />
    <g
       transform="matrix(1.2056624,0,0,1.2056624,-0.8124879,-96.795441)"
       aria-label="R"
       style="font-style:normal;font-variant:normal;font-weight:bold;font-stretch:normal;font-size:4.05759525px;line-height:1.25;font-family:Helvetica;-inkscape-font-specification:'Helvetica Bold';letter-spacing:0.02261264px;word-spacing:0px;fill:#ed2024;fill-opacity:1;stroke:#ed2024;stroke-width:0.02113331;stroke-opacity:1"
       id="text1044">
      <path
         inkscape:connector-curvature="0"
         d="m -90.950623,227.63834 h 0.401702 v -1.32278 h 0.511257 c 0.490969,0 0.592409,0.12173 0.6411,0.54778 0.0284,0.22316 0.06898,0.58023 0.133901,0.775 h 0.434163 c -0.113613,-0.32461 -0.142016,-0.57618 -0.182592,-0.92108 -0.04058,-0.36518 -0.166361,-0.49097 -0.446336,-0.564 0.08927,-0.0243 0.219111,-0.0649 0.344896,-0.19071 0.129843,-0.12984 0.206937,-0.31244 0.206937,-0.51937 0,-0.23534 -0.105497,-0.45851 -0.324607,-0.59647 -0.215053,-0.13796 -0.52343,-0.13796 -0.673561,-0.13796 h -1.04686 z m 0.393587,-2.58875 h 0.6411 c 0.162304,0 0.584294,0 0.584294,0.47474 0,0.24345 -0.142016,0.34895 -0.198822,0.38141 -0.109555,0.0649 -0.340838,0.0649 -0.385472,0.0649 h -0.6411 z"
         style="font-style:normal;font-variant:normal;font-weight:normal;font-stretch:normal;font-family:'Univers LT Std';-inkscape-font-specification:'Univers LT Std';fill:#ed2024;fill-opacity:1;stroke:#ed2024;stroke-width:0.02113331;stroke-opacity:1"
         id="path1060" />
    </g>
    <path
       id="path836"
       style="fill:#ed2024;fill-opacity:1;stroke-width:0.36930308"
       d="m -132.86825,178.23485 c 0.61737,-1.47756 0.69701,-3.00731 0.17343,-3.3309 -1.23884,-0.76562 -2.7037,2.28553 -1.85691,3.86781 0.57655,1.07729 1.07551,0.91816 1.68348,-0.53691 z m 2.38161,12.52667 c 0,-0.87488 -2.50693,-4.59854 -3.09597,-4.59854 -0.5275,0 -2.81286,3.23342 -2.81286,3.97972 0,0.22368 0.78938,0.51303 1.75418,0.643 0.96479,0.1299 1.92035,0.29323 2.12349,0.36279 0.99428,0.34041 2.03116,0.14289 2.03116,-0.38697 z m -0.14243,5.5487 c 1.57104,-1.57107 1.086,-2.14341 -2.263,-2.67018 -3.58593,-0.564 -4.61132,-0.39169 -4.61132,0.77495 0,0.84458 1.15025,2.17675 2.21584,2.56628 0.30467,0.11142 1.26776,0.21563 2.14026,0.23165 1.22758,0.0225 1.79704,-0.18157 2.51822,-0.9027 z m -53.13138,3.89707 c 1.6906,-0.76743 4.52582,-2.89506 4.52582,-3.39632 0,-0.41703 -2.43009,-0.3878 -4.77781,0.0573 -2.52882,0.47959 -4.37273,1.3799 -4.65636,2.27355 -0.56808,1.7898 2.0571,2.35956 4.90835,1.06533 z m 58.81336,10.71883 c -1.11713,-0.16798 -4.52394,-0.91559 -7.57071,-1.66139 -9.06288,-2.21847 -11.27209,-2.70427 -14.95677,-3.28881 -5.90467,-0.93671 -6.31188,-0.98029 -11.26375,-1.20535 -7.46282,-0.33915 -14.71178,0.82218 -24.17314,3.87274 -1.92072,0.61927 -3.56407,1.05403 -3.65196,0.9662 -0.0877,-0.088 0.23725,-0.31081 0.72243,-0.49549 0.48518,-0.18466 1.89043,-0.76028 3.1228,-1.27918 13.68442,-5.76183 25.96374,-6.40924 46.13805,-2.43248 18.17614,3.58289 31.16958,2.31947 39.850028,-3.87475 5.082597,-3.62687 7.895237,-9.20314 5.153543,-10.21735 -1.359876,-0.50306 -3.523364,0.94052 -8.073255,5.38687 -4.791566,4.68258 -7.010726,6.07471 -9.693146,6.0809 -1.28967,0.003 -1.83448,-0.23672 -3.06516,-1.34858 l -1.4967,-1.35215 -1.28667,0.61353 c -1.62187,0.77344 -4.64855,0.79083 -6.10991,0.0353 -1.32859,-0.68704 -2.51801,-3.06312 -2.52965,-5.05344 -0.011,-1.89856 -0.44872,-1.73575 -1.22739,0.45662 -0.78519,2.21073 -1.79074,3.39041 -3.76085,4.41204 -1.78266,0.92445 -4.79258,1.00964 -6.75711,0.19123 -1.48115,-0.61704 -4.14279,-2.99723 -4.14279,-3.70472 0,-0.23858 -0.24375,-0.63606 -0.54161,-0.88326 -0.44257,-0.36733 -1.05181,-0.10828 -3.33196,1.41679 -1.53469,1.02646 -3.35531,1.97228 -4.04581,2.10182 -1.53534,0.288 -3.32627,-0.0698 -3.91804,-0.78287 -0.59564,-0.71771 -1.44459,-0.66704 -3.35601,0.20029 -2.41247,1.0947 -4.64417,0.97686 -6.64897,-0.35106 -0.91156,-0.60378 -1.88455,-1.52229 -2.16222,-2.04112 -0.63803,-1.19217 -1.67337,-1.44953 -4.53089,-1.12622 -1.91276,0.21639 -2.65538,0.53395 -4.68754,2.0044 -4.84635,3.50678 -9.51605,5.58445 -12.55144,5.58445 -2.94352,0 -5.90213,-1.75383 -5.91836,-3.50837 -0.0109,-1.25202 1.36521,-3.07182 2.92672,-3.86845 1.5218,-0.77638 8.9663,-2.22507 11.43412,-2.22507 1.01953,0 1.6152,-0.26056 2.3216,-1.01557 1.237,-1.32216 2.14243,-3.14275 2.14243,-4.30796 0,-1.56769 -1.05485,-1.82032 -6.38973,-1.53031 -2.62897,0.14292 -6.84961,0.24708 -9.37921,0.2315 -3.86569,-0.024 -4.92808,-0.1606 -6.66073,-0.85764 -2.81547,-1.13268 -3.60787,-2.28188 -3.60015,-5.22133 0.006,-1.96229 0.19692,-2.6272 1.29256,-4.48147 1.6426,-2.77996 6.74311,-8.13803 10.41241,-10.93817 3.66185,-2.7945 11.1898,-7.60505 14.51867,-9.27777 3.82945,-1.92427 8.42425,-3.2246 11.39438,-3.2246 2.2731,0 2.60092,0.0988 3.58162,1.0795 0.92434,0.92433 1.07899,1.36228 1.07591,3.04674 -0.008,4.50304 -5.57874,12.31274 -10.29109,14.42787 -3.23433,1.45173 -5.58535,0.68565 -5.58535,-1.81993 0,-2.38709 1.47659,-4.64695 4.52398,-6.92386 1.6213,-1.21134 1.71246,-0.92479 0.48104,1.51165 -0.89527,1.77135 -1.06752,2.48768 -0.98521,4.09643 0.0356,0.69505 0.25354,0.83092 1.3331,0.83092 1.09245,0 1.62579,-0.34368 3.475,-2.23938 2.49046,-2.55308 4.73455,-6.517 5.06841,-8.95271 0.20126,-1.46829 0.1273,-1.72224 -0.64873,-2.22425 -0.69503,-0.44968 -1.24988,-0.49579 -2.68658,-0.22325 -6.29279,1.19372 -20.69422,12.27709 -23.80961,18.32393 -0.61517,1.194 -0.50763,2.13469 0.33073,2.8934 0.63633,0.57583 1.71186,0.71546 7.29377,0.94689 8.80829,0.36516 11.76762,1.31995 13.21956,4.26506 1.30835,2.65381 0.76095,5.79979 -1.54552,8.88225 -1.11874,1.49506 -1.13634,2.33452 -0.0489,2.32711 1.2301,-0.008 1.61867,-0.37579 2.33843,-2.21124 1.57255,-4.01007 4.42857,-7.25913 7.97451,-9.07192 2.19978,-1.12458 4.95471,-1.74554 6.4795,-1.46045 1.58383,0.29611 3.42692,1.88434 3.42692,2.95303 0,0.81442 -0.092,0.84053 -2.32754,0.66108 -1.89164,-0.15186 -2.61479,-0.0404 -3.86114,0.59555 -2.17931,1.1118 -5.56528,4.68514 -5.84319,6.16657 -0.30729,1.63798 0.0954,2.69841 1.12225,2.9562 1.72491,0.4329 4.18025,-1.5936 6.63525,-5.47644 1.59439,-2.52164 2.56667,-2.75825 4.05689,-0.98725 1.24039,1.47418 1.20578,2.15833 -0.24141,4.77074 -0.6586,1.18891 -1.0818,2.27732 -0.94045,2.41867 0.14136,0.14139 0.70871,0.14367 1.26078,0.006 1.22159,-0.30662 7.15722,-6.23877 9.11963,-9.11429 l 1.41038,-2.06664 -0.62126,-2.137 c -0.81087,-2.78931 -0.5695,-5.26474 0.70057,-7.18391 1.61835,-2.44549 4.28112,-2.51565 5.27416,-0.139 0.61467,1.4711 0.32509,3.4104 -1.02878,6.88969 -0.38116,0.97955 -0.57544,1.97666 -0.43171,2.2158 0.14373,0.23911 1.22857,1.56345 2.41076,2.94295 1.18218,1.3795 2.56468,3.166 3.07223,3.97001 1.21711,1.92801 2.74146,2.03266 4.18749,0.28748 2.92612,-3.53148 5.50489,-5.75775 7.5601,-6.5267 3.53047,-1.32091 6.42382,-0.99658 8.19923,0.91911 1.47386,1.5903 1.21121,1.83377 -1.9572,1.81409 -2.6988,-0.0168 -2.98623,0.0617 -4.91793,1.34196 -3.42826,2.27209 -5.2571,5.76279 -3.83976,7.32894 0.36267,0.4007 1.04861,0.72859 1.52432,0.72859 1.04121,0 3.31947,-1.98385 4.76386,-4.14824 1.25519,-1.88086 2.41388,-3.23782 2.76469,-3.23782 0.14,0 0.70824,0.45366 1.26273,1.00817 1.32011,1.32006 1.12526,2.56202 -0.90664,5.77932 -1.76699,2.79783 -1.80214,3.68725 -0.15216,3.84876 1.18172,0.11566 3.27209,-1.21477 6.32234,-4.02383 3.775396,-3.47685 7.311422,-5.50453 9.599254,-5.50453 0.508109,0 1.378793,0.47356 1.984746,1.07952 1.979039,1.97903 1.349842,4.70368 -2.061085,8.92532 -4.105952,5.08188 -10.393525,8.67929 -18.648315,10.66961 -3.52395,0.84967 -11.14664,1.25453 -14.40283,0.76497 z"
       inkscape:connector-curvature="0" />
  </g>
</svg>
