<?xml version="1.0" encoding="UTF-8" ?>
<!DOCTYPE svg PUBLIC "-//W3C//DTD SVG 1.1//EN" "http://www.w3.org/Graphics/SVG/1.1/DTD/svg11.dtd">
<svg width="1499pt" height="881pt" viewBox="0 0 1499 881" version="1.1" xmlns="http://www.w3.org/2000/svg">
<path fill="#ed1c22" opacity="1.00" d=" M 1263.64 51.72 C 1283.97 40.85 1307.16 36.59 1330.00 35.57 C 1351.92 34.73 1374.34 36.60 1395.06 44.26 C 1411.55 50.26 1426.74 60.46 1437.46 74.47 C 1448.13 88.09 1454.36 104.85 1456.57 121.93 C 1428.13 121.78 1399.70 121.97 1371.26 121.84 C 1370.28 113.55 1364.90 105.94 1357.18 102.65 C 1346.49 98.16 1334.46 97.65 1323.12 99.46 C 1317.34 100.53 1310.68 102.81 1308.13 108.62 C 1305.43 113.94 1307.34 120.59 1311.48 124.60 C 1317.11 130.37 1325.03 133.00 1332.45 135.65 C 1352.75 142.01 1373.80 145.68 1394.07 152.20 C 1413.01 158.18 1432.08 166.39 1446.07 180.95 C 1458.06 193.40 1464.22 210.83 1463.89 228.00 C 1464.43 246.90 1459.25 266.28 1447.65 281.39 C 1434.89 298.44 1415.38 309.17 1395.29 315.20 C 1372.26 322.14 1347.96 323.67 1324.04 322.65 C 1305.45 321.33 1286.91 317.12 1270.15 308.84 C 1252.12 300.16 1236.15 286.64 1226.06 269.23 C 1219.46 257.81 1215.55 244.81 1215.06 231.61 C 1243.69 231.58 1272.32 231.47 1300.96 231.66 C 1302.51 240.27 1307.50 248.39 1315.14 252.84 C 1325.67 259.55 1338.68 261.26 1350.89 259.59 C 1359.20 258.51 1368.28 256.60 1374.17 250.13 C 1378.16 246.06 1379.35 239.52 1377.00 234.32 C 1374.79 229.27 1370.03 225.98 1365.29 223.56 C 1355.44 218.72 1344.69 216.22 1334.12 213.57 C 1313.59 208.54 1292.70 204.26 1273.21 195.86 C 1258.81 189.76 1245.00 181.17 1235.36 168.63 C 1227.59 158.74 1223.08 146.54 1221.65 134.09 C 1220.15 119.35 1221.23 104.02 1227.19 90.29 C 1234.05 73.47 1247.81 60.22 1263.64 51.72 Z" />
<path fill="#ed1c22" opacity="1.00" d=" M 984.85 46.04 C 1003.30 38.60 1023.28 35.59 1043.09 35.33 C 1071.06 35.27 1099.77 41.24 1123.46 56.65 C 1144.04 69.71 1159.61 90.01 1167.71 112.93 C 1170.46 120.68 1172.39 128.70 1173.83 136.80 C 1145.37 136.84 1116.90 137.06 1088.45 136.69 C 1085.24 122.82 1075.05 110.51 1061.60 105.51 C 1052.47 102.13 1042.38 101.53 1032.83 103.19 C 1020.49 105.45 1009.75 113.69 1003.52 124.46 C 993.37 141.38 991.03 161.65 990.70 181.02 C 990.76 197.31 992.41 214.15 999.79 228.93 C 1005.18 239.87 1014.71 248.81 1026.31 252.78 C 1039.41 257.27 1054.27 257.77 1067.15 252.26 C 1079.32 247.28 1090.71 237.81 1094.15 224.66 C 1080.96 224.64 1067.76 224.68 1054.57 224.64 C 1054.65 204.96 1054.58 185.28 1054.60 165.59 C 1095.47 165.57 1136.33 165.56 1177.20 165.60 C 1177.17 215.92 1177.13 266.24 1177.22 316.56 C 1157.99 316.80 1138.76 316.59 1119.53 316.66 C 1118.33 308.01 1117.40 299.33 1116.19 290.68 C 1113.25 292.12 1111.47 295.01 1109.06 297.11 C 1089.70 315.52 1062.28 323.09 1036.05 322.87 C 1002.50 323.76 967.84 313.07 942.93 290.06 C 929.91 278.24 919.79 263.38 913.09 247.15 C 904.31 225.97 900.94 202.82 901.33 179.98 C 901.59 146.05 910.95 111.22 932.49 84.48 C 946.03 67.22 964.48 54.04 984.85 46.04 Z" />
<path fill="#ed1c22" opacity="1.00" d=" M 45.26 42.80 C 74.05 42.79 102.84 42.94 131.63 42.73 C 141.91 98.18 151.96 153.68 162.05 209.17 C 162.49 209.03 163.39 208.75 163.84 208.61 C 174.53 153.65 185.09 98.66 195.75 43.69 C 195.97 43.49 196.41 43.07 196.63 42.87 C 220.44 42.77 244.25 42.86 268.05 42.82 C 270.13 42.21 270.45 44.48 270.65 45.88 C 280.96 100.32 291.83 154.65 302.04 209.09 C 303.36 209.06 304.01 208.38 303.98 207.03 C 313.61 153.49 323.55 100.01 333.20 46.47 C 333.43 45.16 333.87 43.91 334.32 42.67 C 363.08 43.03 391.85 42.73 420.61 42.82 C 398.06 133.85 375.26 224.82 352.71 315.85 C 323.31 315.88 293.90 315.94 264.50 315.82 C 260.50 293.51 255.65 271.34 251.36 249.08 C 245.27 218.98 239.43 188.83 233.28 158.74 L 232.12 159.33 C 221.70 211.47 211.48 263.65 201.34 315.85 C 171.96 315.90 142.58 315.90 113.21 315.85 C 90.61 224.82 67.94 133.81 45.26 42.80 Z" />
<path fill="#ed1c22" opacity="1.00" d=" M 451.60 42.81 C 481.53 42.87 511.47 42.78 541.40 42.85 C 541.45 133.86 541.35 224.87 541.45 315.88 C 511.49 315.86 481.53 315.92 451.57 315.85 C 451.59 224.83 451.53 133.82 451.60 42.81 Z" />
<path fill="#ed1c22" opacity="1.00" d=" M 596.59 42.81 C 624.50 42.81 652.41 42.89 680.31 42.77 C 712.65 91.44 744.23 140.63 776.51 189.33 L 777.80 190.24 C 777.02 169.81 775.66 149.40 774.83 128.97 C 774.82 102.97 774.83 76.96 774.83 50.96 C 774.84 48.20 774.56 45.38 775.30 42.68 C 803.39 42.92 831.51 42.93 859.60 42.68 C 860.67 45.68 860.00 48.90 860.15 52.01 C 860.21 139.95 860.04 227.89 860.23 315.82 C 832.27 315.96 804.30 315.84 776.34 315.88 C 745.20 267.93 713.68 220.21 682.39 172.36 C 681.54 171.29 680.97 169.60 679.25 169.80 C 680.17 189.88 681.45 209.94 682.42 230.01 C 682.45 258.63 682.38 287.24 682.45 315.86 C 653.81 315.91 625.17 315.84 596.52 315.90 C 596.68 224.87 596.55 133.84 596.59 42.81 Z" />
<path fill="#000000" opacity="1.00" d=" M 96.77 365.83 C 282.20 365.83 467.62 365.83 653.05 365.83 C 669.09 366.12 685.82 370.19 698.32 380.72 C 711.21 391.51 717.89 408.43 718.17 425.01 C 718.17 442.99 718.18 460.97 718.16 478.96 C 718.26 484.42 719.42 489.97 722.15 494.75 C 726.27 502.03 733.66 507.43 741.90 508.98 C 750.67 510.16 759.35 505.58 764.89 498.99 C 769.65 493.50 771.72 486.15 771.84 478.99 C 771.83 460.98 771.84 442.98 771.83 424.97 C 772.11 408.86 778.41 392.47 790.62 381.65 C 803.19 370.40 820.52 366.11 837.04 365.83 C 1022.43 365.83 1207.83 365.81 1393.23 365.84 C 1387.57 382.44 1376.04 396.44 1363.01 407.88 C 1337.51 429.84 1304.94 441.62 1272.29 447.92 C 1265.71 465.09 1254.53 480.63 1240.03 491.99 C 1223.97 504.75 1203.41 510.95 1183.04 511.03 C 1157.42 539.68 1120.42 557.89 1082.06 560.50 C 1067.55 561.86 1052.97 560.23 1038.64 557.92 C 1039.21 559.88 1041.06 560.98 1042.42 562.37 C 1055.98 575.49 1063.93 593.89 1065.25 612.64 C 1048.84 613.20 1032.44 613.84 1016.04 614.35 C 1015.38 626.07 1015.04 637.83 1015.00 649.58 C 1005.16 649.41 995.32 648.91 985.48 648.68 C 985.40 659.84 985.48 671.01 985.44 682.17 C 976.33 682.61 967.22 683.11 958.10 683.17 C 957.30 693.39 956.72 703.64 955.89 713.87 C 946.07 714.42 936.26 715.18 926.46 715.93 C 926.43 725.74 926.49 735.54 926.43 745.34 C 914.88 746.10 903.32 746.58 891.80 747.54 C 880.75 782.24 855.69 812.34 823.44 829.31 C 799.14 842.14 771.40 847.42 744.08 847.18 C 714.94 847.19 685.30 840.80 660.15 825.70 C 630.98 808.27 608.49 779.88 598.19 747.51 C 586.66 746.62 575.11 746.08 563.58 745.34 C 563.49 735.52 563.60 725.70 563.52 715.88 C 553.72 715.25 543.94 714.36 534.14 713.89 C 533.22 703.66 532.75 693.39 531.87 683.16 C 522.76 683.11 513.65 682.61 504.56 682.17 C 504.52 671.00 504.58 659.84 504.53 648.68 C 494.69 648.92 484.85 649.40 475.01 649.59 C 474.96 637.83 474.59 626.06 473.97 614.32 C 457.55 613.86 441.13 613.23 424.72 612.60 C 426.09 594.15 433.77 576.02 446.99 562.95 C 448.53 561.35 450.56 560.10 451.36 557.92 C 429.12 561.96 406.06 562.21 384.03 556.84 C 354.53 549.76 327.19 533.66 306.96 511.02 C 289.45 510.87 271.77 506.52 257.00 496.92 C 239.01 485.48 225.31 467.76 217.73 447.93 C 186.96 441.94 156.30 431.27 131.50 411.58 C 116.47 399.54 103.12 384.27 96.77 365.83 M 129.43 384.80 C 133.19 389.64 137.88 393.68 143.00 397.02 C 155.83 405.42 170.29 410.97 184.92 415.37 C 215.96 424.51 248.26 428.47 280.46 430.77 C 331.75 434.07 383.22 432.45 434.45 428.84 C 434.56 435.40 429.29 440.19 424.04 443.20 C 413.32 449.50 400.95 452.15 388.86 454.47 C 363.49 458.73 337.69 459.77 312.00 459.75 C 289.19 459.93 266.38 458.96 243.61 457.70 C 245.23 465.21 251.71 470.28 258.08 473.83 C 267.31 478.75 277.55 481.51 287.82 483.30 C 310.61 487.46 333.91 487.36 356.99 486.70 C 383.39 485.71 409.67 482.74 435.87 479.47 C 435.07 484.12 433.34 488.69 430.31 492.36 C 422.70 501.75 411.08 506.63 399.74 509.84 C 378.60 515.33 356.52 515.73 334.83 514.67 C 337.52 518.50 341.63 520.97 345.37 523.66 C 363.59 535.48 385.51 540.47 407.03 541.00 C 432.44 541.65 457.68 536.57 481.73 528.65 C 497.10 523.53 512.19 517.47 526.70 510.22 C 525.77 519.55 527.78 529.57 534.30 536.62 C 543.00 546.11 556.20 549.64 568.61 550.83 C 565.38 557.63 564.21 566.40 569.29 572.63 C 576.63 581.77 588.81 584.61 599.81 586.59 C 598.17 595.14 598.76 605.24 605.19 611.79 C 610.05 616.98 617.40 618.43 624.19 619.09 C 618.54 623.87 612.22 628.30 604.82 629.74 C 598.61 631.11 591.94 628.96 587.47 624.51 C 581.40 618.59 578.51 610.37 575.82 602.53 C 566.49 601.20 557.14 597.42 550.62 590.43 C 545.55 584.92 543.29 577.42 543.19 570.03 C 530.90 567.15 517.17 561.51 512.13 548.93 C 498.62 548.83 485.24 553.40 474.30 561.26 C 461.78 570.36 452.62 583.58 446.98 597.89 C 461.55 598.18 476.12 597.87 490.69 598.04 C 490.80 609.50 490.75 620.96 490.72 632.42 C 501.16 632.53 511.62 632.58 522.07 632.38 C 522.49 643.56 522.14 654.76 522.26 665.95 C 531.61 666.12 540.97 665.87 550.32 666.08 C 550.06 675.70 549.74 685.31 549.71 694.93 C 559.98 695.14 570.27 694.79 580.54 695.14 C 580.49 706.13 580.52 717.12 580.52 728.12 C 590.83 727.71 601.13 727.08 611.43 726.56 C 622.16 761.50 644.91 793.67 677.04 811.89 C 705.29 827.99 739.30 831.81 771.07 826.65 C 797.33 822.39 822.16 809.68 840.76 790.64 C 858.47 772.86 871.39 750.45 878.71 726.50 C 889.05 727.15 899.40 727.68 909.75 728.14 C 909.69 717.13 909.85 706.12 909.66 695.12 C 919.95 694.80 930.25 695.14 940.55 694.94 C 940.04 685.34 940.28 675.72 939.67 666.13 C 949.05 665.84 958.44 666.11 967.82 665.98 C 967.64 654.82 967.81 643.66 967.73 632.50 C 978.26 632.47 988.78 632.54 999.31 632.45 C 999.18 621.00 999.24 609.54 999.28 598.09 C 1013.91 597.84 1028.54 598.15 1043.17 597.93 C 1036.43 581.22 1025.08 565.76 1009.05 557.00 C 999.57 551.88 988.74 548.56 977.90 549.12 C 972.72 561.57 959.10 567.22 946.81 570.01 C 946.89 576.92 944.90 584.04 940.33 589.33 C 933.92 597.13 923.98 601.16 914.19 602.55 C 912.05 609.17 909.69 615.88 905.38 621.44 C 901.24 627.16 894.14 630.98 886.99 629.98 C 879.06 628.86 871.92 624.47 866.13 619.11 C 872.80 618.35 880.03 616.97 884.84 611.85 C 891.40 605.34 891.86 595.18 890.28 586.60 C 895.52 585.70 900.73 584.54 905.72 582.70 C 913.29 579.92 921.30 575.20 923.66 566.95 C 925.45 561.47 923.16 556.06 922.01 550.75 C 934.65 549.48 948.23 545.70 956.69 535.57 C 962.62 528.64 964.26 519.12 963.30 510.26 C 985.42 521.01 1008.55 529.82 1032.52 535.45 C 1057.85 541.23 1084.53 543.42 1110.11 537.79 C 1126.75 533.92 1143.43 527.05 1155.62 514.73 C 1136.11 515.58 1116.37 515.45 1097.18 511.46 C 1086.04 509.04 1074.80 505.42 1065.77 498.23 C 1059.88 493.64 1055.14 487.09 1054.29 479.52 C 1097.28 484.80 1140.74 489.38 1184.06 485.77 C 1199.20 484.27 1214.59 481.93 1228.54 475.58 C 1236.22 471.90 1244.47 466.56 1246.54 457.70 C 1224.71 458.87 1202.86 459.87 1181.00 459.75 C 1152.62 459.82 1124.06 458.86 1096.12 453.51 C 1085.26 451.11 1074.11 448.43 1064.66 442.32 C 1060.04 439.35 1055.45 434.82 1055.71 428.89 C 1080.80 430.53 1105.91 431.96 1131.06 432.38 C 1180.78 433.10 1230.89 431.58 1279.78 421.74 C 1301.77 417.02 1323.83 410.82 1343.38 399.40 C 1349.76 395.45 1356.19 391.07 1360.53 384.82 C 1186.68 384.66 1012.82 384.81 838.97 384.74 C 829.55 384.92 819.91 387.47 812.28 393.16 C 797.04 404.50 791.11 424.68 792.25 443.01 C 792.24 458.69 792.27 474.37 792.24 490.05 C 792.25 500.22 788.51 510.85 780.47 517.43 C 770.14 526.03 756.10 528.30 743.04 528.07 C 730.42 527.65 716.70 524.86 707.58 515.46 C 700.75 508.90 697.98 499.21 697.79 489.96 C 697.63 470.63 697.86 451.30 697.68 431.97 C 696.45 419.78 692.14 407.48 683.71 398.38 C 675.25 389.06 662.40 384.57 650.00 384.75 C 476.47 384.80 302.95 384.69 129.43 384.80 Z" />
<path fill="#ed1c22" opacity="1.00" d=" M 129.43 384.80 C 302.95 384.69 476.47 384.80 650.00 384.75 C 662.40 384.57 675.25 389.06 683.71 398.38 C 692.14 407.48 696.45 419.78 697.68 431.97 C 697.86 451.30 697.63 470.63 697.79 489.96 C 697.98 499.21 700.75 508.90 707.58 515.46 C 716.70 524.86 730.42 527.65 743.04 528.07 C 756.10 528.30 770.14 526.03 780.47 517.43 C 788.51 510.85 792.25 500.22 792.24 490.05 C 792.27 474.37 792.24 458.69 792.25 443.01 C 791.11 424.68 797.04 404.50 812.28 393.16 C 819.91 387.47 829.55 384.92 838.97 384.74 C 1012.82 384.81 1186.68 384.66 1360.53 384.82 C 1356.19 391.07 1349.76 395.45 1343.38 399.40 C 1323.83 410.82 1301.77 417.02 1279.78 421.74 C 1230.89 431.58 1180.78 433.10 1131.06 432.38 C 1105.91 431.96 1080.80 430.53 1055.71 428.89 C 1055.45 434.82 1060.04 439.35 1064.66 442.32 C 1074.11 448.43 1085.26 451.11 1096.12 453.51 C 1124.06 458.86 1152.62 459.82 1181.00 459.75 C 1202.86 459.87 1224.71 458.87 1246.54 457.70 C 1244.47 466.56 1236.22 471.90 1228.54 475.58 C 1214.59 481.93 1199.20 484.27 1184.06 485.77 C 1140.74 489.38 1097.28 484.80 1054.29 479.52 C 1055.14 487.09 1059.88 493.64 1065.77 498.23 C 1074.80 505.42 1086.04 509.04 1097.18 511.46 C 1116.37 515.45 1136.11 515.58 1155.62 514.73 C 1143.43 527.05 1126.75 533.92 1110.11 537.79 C 1084.53 543.42 1057.85 541.23 1032.52 535.45 C 1008.55 529.82 985.42 521.01 963.30 510.26 C 964.26 519.12 962.62 528.64 956.69 535.57 C 948.23 545.70 934.65 549.48 922.01 550.75 C 923.16 556.06 925.45 561.47 923.66 566.95 C 921.30 575.20 913.29 579.92 905.72 582.70 C 900.73 584.54 895.52 585.70 890.28 586.60 C 891.86 595.18 891.40 605.34 884.84 611.85 C 880.03 616.97 872.80 618.35 866.13 619.11 C 871.92 624.47 879.06 628.86 886.99 629.98 C 894.14 630.98 901.24 627.16 905.38 621.44 C 909.69 615.88 912.05 609.17 914.19 602.55 C 923.98 601.16 933.92 597.13 940.33 589.33 C 944.90 584.04 946.89 576.92 946.81 570.01 C 959.10 567.22 972.72 561.57 977.90 549.12 C 988.74 548.56 999.57 551.88 1009.05 557.00 C 1025.08 565.76 1036.43 581.22 1043.17 597.93 C 1028.54 598.15 1013.91 597.84 999.28 598.09 C 999.24 609.54 999.18 621.00 999.31 632.45 C 988.78 632.54 978.26 632.47 967.73 632.50 C 967.81 643.66 967.64 654.82 967.82 665.98 C 958.44 666.11 949.05 665.84 939.67 666.13 C 940.28 675.72 940.04 685.34 940.55 694.94 C 930.25 695.14 919.95 694.80 909.66 695.12 C 909.85 706.12 909.69 717.13 909.75 728.14 C 899.40 727.68 889.05 727.15 878.71 726.50 C 871.39 750.45 858.47 772.86 840.76 790.64 C 822.16 809.68 797.33 822.39 771.07 826.65 C 739.30 831.81 705.29 827.99 677.04 811.89 C 644.91 793.67 622.16 761.50 611.43 726.56 C 601.13 727.08 590.83 727.71 580.52 728.12 C 580.52 717.12 580.49 706.13 580.54 695.14 C 570.27 694.79 559.98 695.14 549.71 694.93 C 549.74 685.31 550.06 675.70 550.32 666.08 C 540.97 665.87 531.61 666.12 522.26 665.95 C 522.14 654.76 522.49 643.56 522.07 632.38 C 511.62 632.58 501.16 632.53 490.72 632.42 C 490.75 620.96 490.80 609.50 490.69 598.04 C 476.12 597.87 461.55 598.18 446.98 597.89 C 452.62 583.58 461.78 570.36 474.30 561.26 C 485.24 553.40 498.62 548.83 512.13 548.93 C 517.17 561.51 530.90 567.15 543.19 570.03 C 543.29 577.42 545.55 584.92 550.62 590.43 C 557.14 597.42 566.49 601.20 575.82 602.53 C 578.51 610.37 581.40 618.59 587.47 624.51 C 591.94 628.96 598.61 631.11 604.82 629.74 C 612.22 628.30 618.54 623.87 624.19 619.09 C 617.40 618.43 610.05 616.98 605.19 611.79 C 598.76 605.24 598.17 595.14 599.81 586.59 C 588.81 584.61 576.63 581.77 569.29 572.63 C 564.21 566.40 565.38 557.63 568.61 550.83 C 556.20 549.64 543.00 546.11 534.30 536.62 C 527.78 529.57 525.77 519.55 526.70 510.22 C 512.19 517.47 497.10 523.53 481.73 528.65 C 457.68 536.57 432.44 541.65 407.03 541.00 C 385.51 540.47 363.59 535.48 345.37 523.66 C 341.63 520.97 337.52 518.50 334.83 514.67 C 356.52 515.73 378.60 515.33 399.74 509.84 C 411.08 506.63 422.70 501.75 430.31 492.36 C 433.34 488.69 435.07 484.12 435.87 479.47 C 409.67 482.74 383.39 485.71 356.99 486.70 C 333.91 487.36 310.61 487.46 287.82 483.30 C 277.55 481.51 267.31 478.75 258.08 473.83 C 251.71 470.28 245.23 465.21 243.61 457.70 C 266.38 458.96 289.19 459.93 312.00 459.75 C 337.69 459.77 363.49 458.73 388.86 454.47 C 400.95 452.15 413.32 449.50 424.04 443.20 C 429.29 440.19 434.56 435.40 434.45 428.84 C 383.22 432.45 331.75 434.07 280.46 430.77 C 248.26 428.47 215.96 424.51 184.92 415.37 C 170.29 410.97 155.83 405.42 143.00 397.02 C 137.88 393.68 133.19 389.64 129.43 384.80 M 730.44 588.70 C 722.79 589.72 715.25 591.53 707.97 594.05 C 676.63 605.03 650.96 630.87 640.27 662.32 C 632.58 684.29 632.25 708.70 638.98 730.96 C 643.95 747.19 652.69 762.24 664.34 774.58 C 683.06 794.72 709.60 807.33 737.03 809.18 C 765.97 811.40 795.66 801.63 817.43 782.39 C 839.69 763.43 853.59 735.15 855.40 706.00 C 857.50 676.07 846.94 645.43 826.43 623.47 C 802.62 597.14 765.58 583.77 730.44 588.70 Z" />
<path fill="#000000" opacity="1.00" d=" M 730.44 588.70 C 765.58 583.77 802.62 597.14 826.43 623.47 C 846.94 645.43 857.50 676.07 855.40 706.00 C 853.59 735.15 839.69 763.43 817.43 782.39 C 795.66 801.63 765.97 811.40 737.03 809.18 C 709.60 807.33 683.06 794.72 664.34 774.58 C 652.69 762.24 643.95 747.19 638.98 730.96 C 632.25 708.70 632.58 684.29 640.27 662.32 C 650.96 630.87 676.63 605.03 707.97 594.05 C 715.25 591.53 722.79 589.72 730.44 588.70 M 730.57 602.76 C 701.25 606.81 674.51 625.36 660.20 651.23 C 643.40 680.85 643.96 719.35 661.66 748.46 C 672.14 765.96 688.24 780.08 707.09 787.94 C 724.95 795.52 745.11 797.42 764.12 793.68 C 790.45 788.61 814.22 771.96 828.07 749.02 C 841.51 727.18 845.49 699.90 839.28 675.07 C 832.72 647.82 813.47 624.03 788.29 611.76 C 770.57 602.92 750.13 599.88 730.57 602.76 Z" />
<path fill="#fef200" opacity="1.00" d=" M 730.57 602.76 C 750.13 599.88 770.57 602.92 788.29 611.76 C 813.47 624.03 832.72 647.82 839.28 675.07 C 845.49 699.90 841.51 727.18 828.07 749.02 C 814.22 771.96 790.45 788.61 764.12 793.68 C 745.11 797.42 724.95 795.52 707.09 787.94 C 688.24 780.08 672.14 765.96 661.66 748.46 C 643.96 719.35 643.40 680.85 660.20 651.23 C 674.51 625.36 701.25 606.81 730.57 602.76 M 675.86 650.89 C 665.12 665.76 659.48 684.21 660.06 702.54 C 668.32 702.52 676.58 702.41 684.84 702.60 C 684.17 683.27 693.31 664.02 708.73 652.35 C 708.77 675.23 708.73 698.10 708.74 720.98 C 708.86 740.17 708.43 759.37 709.12 778.55 C 715.78 781.96 722.89 784.38 730.21 785.87 C 730.76 772.94 730.40 759.99 730.51 747.04 C 731.10 731.71 730.38 716.36 731.00 701.03 C 730.79 681.21 731.39 661.40 731.26 641.58 C 736.52 640.48 741.88 640.00 747.26 639.95 C 747.26 631.81 747.24 623.67 747.27 615.54 C 719.55 614.40 691.82 628.22 675.86 650.89 M 754.24 615.82 C 754.18 634.88 754.27 653.94 754.50 673.00 C 754.51 710.27 754.49 747.55 754.50 784.82 C 762.85 784.00 770.93 781.58 778.73 778.58 C 778.83 759.63 778.30 740.68 778.30 721.72 C 787.38 721.88 796.47 721.85 805.55 722.35 C 808.37 714.74 809.60 706.60 809.54 698.51 C 799.12 698.48 788.70 698.51 778.29 698.50 C 777.96 682.20 777.82 665.89 777.78 649.58 C 786.58 655.59 793.89 663.72 798.92 673.12 C 808.09 673.78 817.25 674.65 826.43 675.34 C 821.60 659.80 812.35 645.60 799.79 635.21 C 786.98 624.41 770.90 617.61 754.24 615.82 Z" />
<path fill="#000000" opacity="1.00" d=" M 675.86 650.89 C 691.82 628.22 719.55 614.40 747.27 615.54 C 747.24 623.67 747.26 631.81 747.26 639.95 C 741.88 640.00 736.52 640.48 731.26 641.58 C 731.39 661.40 730.79 681.21 731.00 701.03 C 730.38 716.36 731.10 731.71 730.51 747.04 C 730.40 759.99 730.76 772.94 730.21 785.87 C 722.89 784.38 715.78 781.96 709.12 778.55 C 708.43 759.37 708.86 740.17 708.74 720.98 C 708.73 698.10 708.77 675.23 708.73 652.35 C 693.31 664.02 684.17 683.27 684.84 702.60 C 676.58 702.41 668.32 702.52 660.06 702.54 C 659.48 684.21 665.12 665.76 675.86 650.89 M 679.66 652.63 C 669.84 665.83 664.58 682.09 663.93 698.47 C 669.57 698.51 675.21 698.42 680.86 698.53 C 681.40 676.77 693.73 655.63 712.69 644.86 C 713.00 688.55 712.39 732.25 713.01 775.93 C 717.35 777.93 721.81 779.70 726.46 780.82 C 726.55 733.33 727.11 685.85 727.27 638.36 C 732.50 637.04 737.86 636.25 743.27 636.12 C 743.26 630.56 743.19 625.00 743.30 619.45 C 718.47 619.85 694.19 632.48 679.66 652.63 Z" />
<path fill="#000000" opacity="1.00" d=" M 754.24 615.82 C 770.90 617.61 786.98 624.41 799.79 635.21 C 812.35 645.60 821.60 659.80 826.43 675.34 C 817.25 674.65 808.09 673.78 798.92 673.12 C 793.89 663.72 786.58 655.59 777.78 649.58 C 777.82 665.89 777.96 682.20 778.29 698.50 C 788.70 698.51 799.12 698.48 809.54 698.51 C 809.60 706.60 808.37 714.74 805.55 722.35 C 796.47 721.85 787.38 721.88 778.30 721.72 C 778.30 740.68 778.83 759.63 778.73 778.58 C 770.93 781.58 762.85 784.00 754.50 784.82 C 754.49 747.55 754.51 710.27 754.50 673.00 C 754.27 653.94 754.18 634.88 754.24 615.82 M 758.49 679.95 C 758.60 713.39 758.26 746.84 758.66 780.28 C 764.12 779.14 769.52 777.70 774.76 775.77 C 774.78 756.39 774.20 737.02 774.32 717.65 C 783.82 717.65 793.31 718.20 802.81 717.94 C 804.24 712.92 805.19 707.78 805.45 702.57 C 795.07 702.43 784.69 702.45 774.32 702.56 C 774.03 682.64 773.71 662.73 773.78 642.80 C 785.69 648.15 794.82 658.33 801.58 669.28 C 807.89 669.69 814.17 670.53 820.50 670.67 C 816.09 659.64 809.29 649.55 800.64 641.41 C 789.04 630.39 774.09 623.23 758.40 620.35 C 757.89 640.21 758.60 660.08 758.49 679.95 Z" />
<path fill="#ed1c22" opacity="1.00" d=" M 679.66 652.63 C 694.19 632.48 718.47 619.85 743.30 619.45 C 743.19 625.00 743.26 630.56 743.27 636.12 C 737.86 636.25 732.50 637.04 727.27 638.36 C 727.11 685.85 726.55 733.33 726.46 780.82 C 721.81 779.70 717.35 777.93 713.01 775.93 C 712.39 732.25 713.00 688.55 712.69 644.86 C 693.73 655.63 681.40 676.77 680.86 698.53 C 675.21 698.42 669.57 698.51 663.93 698.47 C 664.58 682.09 669.84 665.83 679.66 652.63 Z" />
<path fill="#ed1c22" opacity="1.00" d=" M 758.49 679.95 C 758.60 660.08 757.89 640.21 758.40 620.35 C 774.09 623.23 789.04 630.39 800.64 641.41 C 809.29 649.55 816.09 659.64 820.50 670.67 C 814.17 670.53 807.89 669.69 801.58 669.28 C 794.82 658.33 785.69 648.15 773.78 642.80 C 773.71 662.73 774.03 682.64 774.32 702.56 C 784.69 702.45 795.07 702.43 805.45 702.57 C 805.19 707.78 804.24 712.92 802.81 717.94 C 793.31 718.20 783.82 717.65 774.32 717.65 C 774.20 737.02 774.78 756.39 774.76 775.77 C 769.52 777.70 764.12 779.14 758.66 780.28 C 758.26 746.84 758.60 713.39 758.49 679.95 Z" />
</svg>
